<?xml version="1.0" encoding="UTF-8" standalone="no"?>
<!-- Created with Inkscape (http://www.inkscape.org/) -->

<svg
   xmlns:dc="http://purl.org/dc/elements/1.1/"
   xmlns:cc="http://creativecommons.org/ns#"
   xmlns:rdf="http://www.w3.org/1999/02/22-rdf-syntax-ns#"
   xmlns:svg="http://www.w3.org/2000/svg"
   xmlns="http://www.w3.org/2000/svg"
   xmlns:sodipodi="http://sodipodi.sourceforge.net/DTD/sodipodi-0.dtd"
   xmlns:inkscape="http://www.inkscape.org/namespaces/inkscape"
   width="640"
   height="640"
   id="svg5260"
   version="1.1"
   inkscape:version="0.48.5 r10040"
   sodipodi:docname="National Nutrition Council (NNC).svg">
  <title
     id="title6683">National Nutrition Council (NNC)</title>
  <defs
     id="defs5262" />
  <sodipodi:namedview
     id="base"
     pagecolor="#ffffff"
     bordercolor="#666666"
     borderopacity="1.0"
     inkscape:pageopacity="0.0"
     inkscape:pageshadow="2"
     inkscape:zoom="0.39843749"
     inkscape:cx="320"
     inkscape:cy="472.86447"
     inkscape:document-units="px"
     inkscape:current-layer="g6685"
     showgrid="false"
     inkscape:snap-bbox="true"
     inkscape:bbox-paths="true"
     inkscape:bbox-nodes="true"
     inkscape:snap-bbox-edge-midpoints="true"
     inkscape:snap-bbox-midpoints="true"
     inkscape:snap-nodes="true"
     inkscape:object-paths="true"
     inkscape:snap-intersection-paths="true"
     inkscape:object-nodes="true"
     inkscape:snap-smooth-nodes="true"
     inkscape:snap-midpoints="true"
     inkscape:snap-object-midpoints="true"
     inkscape:snap-center="true"
     inkscape:snap-global="true"
     fit-margin-top="0"
     fit-margin-left="0"
     fit-margin-right="0"
     fit-margin-bottom="0"
     inkscape:window-width="1366"
     inkscape:window-height="705"
     inkscape:window-x="-8"
     inkscape:window-y="-8"
     inkscape:window-maximized="1"
     inkscape:snap-page="true" />
  <metadata
     id="metadata5265">
    <rdf:RDF>
      <cc:Work
         rdf:about="">
        <dc:format>image/svg+xml</dc:format>
        <dc:type
           rdf:resource="http://purl.org/dc/dcmitype/StillImage" />
        <dc:title>National Nutrition Council (NNC)</dc:title>
        <cc:license
           rdf:resource="" />
      </cc:Work>
    </rdf:RDF>
  </metadata>
  <g
     inkscape:label="Layer 1"
     inkscape:groupmode="layer"
     id="layer1"
     transform="translate(-29.153708,-229.99804)">
    <g
       id="g6685">
      <path
         style="fill:#009246;stroke:none;stroke-width:1px;stroke-linecap:butt;stroke-linejoin:miter;stroke-opacity:1;fill-opacity:1"
         d="m 336.45381,67.04157 c 20.82296,2.167694 41.38905,6.771541 61.61479,12.17654 5.29675,1.415471 15.57549,5.28551 15.57549,5.28551 0,0 37.27554,19.25913 54.84319,30.66272 4.60122,2.98677 9.10607,6.18046 13.18307,9.85062 15.57634,14.02198 29.51211,29.86141 42.70313,46.14745 3.455,4.26566 6.7545,8.69815 9.50023,13.45145 10.48974,18.15938 18.85935,37.53963 26.38302,57.11492 1.97044,5.12675 3.74169,10.36405 4.88739,15.7356 4.37623,20.51772 6.36095,41.54223 7.48035,62.49158 0.29312,5.48574 0.36295,11.01518 -0.20384,16.47943 -2.16445,20.8667 -5.31071,41.92021 -12.15455,61.75115 -8.60925,24.94645 -21.96964,48.14651 -35.87479,70.57621 -2.89242,4.66562 -6.16601,9.1251 -9.83,13.2128 -13.98738,15.60493 -29.79324,29.5758 -46.04952,42.80055 -4.25544,3.46187 -8.67777,6.76913 -13.4227,9.52212 -18.11463,10.51006 -37.45446,18.90233 -56.99169,26.44539 -5.11472,1.97473 -10.34048,3.75055 -15.70147,4.89933 -20.47021,4.38646 -41.45037,6.3781 -62.35511,7.50159 -5.47361,0.29417 -10.99123,0.36455 -16.44328,-0.20301 -20.82296,-2.1677 -41.38905,-6.77156 -61.61479,-12.17655 -5.29676,-1.41547 -10.56598,-3.05753 -15.5755,-5.2855 -19.137,-8.51113 -37.27553,-19.25914 -54.84318,-30.66273 -4.60122,-2.98677 -9.10607,-6.18046 -13.18308,-9.85062 -15.57635,-14.02197 -29.51213,-29.86138 -42.70314,-46.14743 -3.455,-4.26566 -6.75448,-8.69818 -9.50021,-13.45148 -10.489708,-18.15939 -18.859294,-37.53964 -26.382968,-57.11492 -1.970444,-5.12675 -3.741706,-10.36405 -4.88741,-15.7356 -4.376243,-20.51771 -6.360959,-41.54223 -7.48036,-62.49157 -0.293123,-5.48574 -0.362947,-11.01518 0.203847,-16.47943 2.164457,-20.8667 6.759069,-41.47819 12.154573,-61.75115 1.412602,-5.30768 3.050912,-10.58817 5.27509,-15.61012 8.491787,-19.17352 19.216618,-37.35471 30.599688,-54.96607 2.97984,-4.61028 6.166,-9.12511 9.82999,-13.21281 13.98738,-15.60493 29.79326,-29.57577 46.04953,-42.80053 4.25543,-3.46187 8.67776,-6.76914 13.42268,-9.52214 18.11462,-10.510072 37.45445,-18.902314 56.99167,-26.44538 5.11473,-1.974729 10.34048,-3.750557 15.70148,-4.89934 20.47021,-4.386465 41.45037,-6.378098 62.35511,-7.50159 5.47361,-0.29417 10.99122,-0.364554 16.44327,0.20301 z"
         id="path3103"
         inkscape:connector-curvature="0"
         transform="translate(29.153708,229.99804)"
         sodipodi:nodetypes="aacaasaaaaaaaaaaaaaaaaaaaaaaaaaaaaaaaasa" />
      <path
         id="path11862"
         d="m 349.15365,229.99804 c -176.73115,0 -319.999942,143.26889 -319.999942,320 0,176.73113 143.268792,320.00002 319.999942,320.00002 176.73114,0 320.00005,-143.26889 320.00005,-320.00002 0,-176.73111 -143.26891,-320 -320.00005,-320 z"
         style="color:#000000;fill:none;stroke:none;stroke-width:0.26335347;marker:none;visibility:visible;display:inline;overflow:visible;enable-background:accumulate"
         inkscape:connector-curvature="0" />
      <path
         id="path11853"
         d="M 344.59122,812.8485 C 199.41872,810.3145 83.787371,690.57481 86.321368,545.40228 88.855363,400.22983 208.59513,284.59849 353.76763,287.13249 c 145.1725,2.53399 260.80385,122.27375 258.26986,267.4462 -2.534,145.17253 -122.27377,260.8038 -267.44627,258.26981 z"
         style="color:#000000;fill:none;stroke:none;stroke-width:1;marker:none;visibility:visible;display:inline;overflow:visible;enable-background:accumulate"
         inkscape:connector-curvature="0" />
      <path
         id="path11871"
         d="m 221.87387,809.78654 c -0.10288,5.89377 -4.96412,10.58821 -10.85786,10.48533 -5.89378,-0.10288 -10.58822,-4.96411 -10.48534,-10.85788 0.10288,-5.89374 4.96411,-10.5882 10.85789,-10.48532 5.89374,0.10288 10.58818,4.96413 10.48531,10.85787 z"
         style="color:#000000;fill:#000000;stroke:none;stroke-width:2.5;marker:none;visibility:visible;display:inline;overflow:visible;enable-background:accumulate"
         inkscape:connector-curvature="0" />
      <path
         id="path11871-2"
         d="m 492.94624,814.51812 c -0.10288,5.89378 -4.96412,10.58821 -10.85787,10.48534 -5.89378,-0.10288 -10.58821,-4.96411 -10.48533,-10.85788 0.10288,-5.89374 4.9641,-10.5882 10.85788,-10.48532 5.89375,0.10287 10.58819,4.96412 10.48532,10.85786 z"
         style="color:#000000;fill:#000000;stroke:none;stroke-width:2.5;marker:none;visibility:visible;display:inline;overflow:visible;enable-background:accumulate"
         inkscape:connector-curvature="0" />
      <path
         inkscape:transform-center-y="88.335864"
         inkscape:transform-center-x="-122.0896"
         sodipodi:nodetypes="ccccssssccssaaasc"
         inkscape:connector-curvature="0"
         id="path5758"
         d="m 553.545,698.76279 -9.83,13.2128 -46.10308,-47.24382 -21.60916,-21.13237 c 0,0 -7.17463,-5.19832 -11.25084,-6.8063 -9.70567,-3.82873 -20.71056,-3.19306 -30.6244,-6.44237 -5.56586,-1.82425 -10.99969,-4.21414 -16.00308,-7.26342 -4.72441,-2.87926 -10.64284,-7.39473 -13.02807,-10.2906 -5.40439,-6.5614 -12.28817,-14.24716 -15.16417,-22.96137 -6.45024,-12.16004 -4.35047,-26.26482 1.83503,-19.10856 5.79128,5.28775 5.27225,4.64656 13.63509,12.90971 8.68708,8.58352 18.3432,17.08264 28.08136,24.87652 3.69769,2.95944 8.07623,4.99238 12.38249,6.95866 6.61235,3.01926 13.74189,4.74855 20.52217,7.36724 3.83937,1.48284 7.84346,2.66465 11.40888,4.72282 5.59709,3.23095 10.41351,6.8037 15.38548,11.80592 25.11927,25.27211 60.3623,59.39514 60.3623,59.39514 z"
         style="fill:#ffffff;stroke:none" />
      <path
         inkscape:transform-center-y="89.573322"
         inkscape:transform-center-x="120.44389"
         sodipodi:nodetypes="ccccssssccssaaasc"
         inkscape:connector-curvature="0"
         id="path5758-93"
         d="m 144.83154,698.81873 -9.50021,-13.45148 59.08299,-29.34728 26.73317,-14.06796 c 0,0 7.15066,-5.2325 9.93652,-8.62094 6.63327,-8.06808 9.43156,-18.75376 15.5793,-27.19922 3.45153,-4.74149 7.39898,-9.18241 11.83918,-13.00929 4.19259,-3.61355 10.30697,-7.85966 13.79232,-9.23845 7.89703,-3.12407 17.31827,-7.31087 26.47675,-7.35992 13.53323,-2.39125 26.26925,3.96773 17.56627,7.65255 -6.80794,3.88631 -6.03904,3.58967 -16.46539,9.00784 -10.8306,5.62823 -21.88061,12.20619 -32.28677,19.08021 -3.95133,2.61015 -7.23389,6.15546 -10.43086,9.65249 -4.909,5.36977 -8.7541,11.63072 -13.33449,17.28458 -2.5939,3.20138 -4.95299,6.65276 -8.0082,9.41527 -4.79606,4.33665 -9.67521,7.82364 -15.95896,11.01725 -31.74661,16.13467 -75.02162,39.18435 -75.02162,39.18435 z"
         style="fill:#ffffff;stroke:none" />
      <path
         inkscape:transform-center-y="122.35811"
         inkscape:transform-center-x="88.142024"
         sodipodi:nodetypes="ccccssssccssaaasc"
         inkscape:connector-curvature="0"
         id="path5758-44"
         d="m 200.71776,754.81678 -13.18308,-9.85062 47.14375,-46.208 21.08767,-21.65826 c 0,0 5.18749,-7.19082 6.79225,-11.27609 3.82108,-9.72731 3.18766,-20.75637 6.43059,-30.69221 1.8207,-5.57824 4.20573,-11.02421 7.24871,-16.03882 2.87331,-4.73502 7.37933,-10.66681 10.26903,-13.05749 6.54745,-5.41676 14.21687,-12.31627 22.91218,-15.19926 12.13387,-6.46535 26.20758,-4.36206 19.06651,1.83761 -5.27659,5.8044 -4.63677,5.28416 -12.88244,13.66602 -8.56536,8.70683 -17.04657,18.38483 -24.82413,28.145 -2.95321,3.70605 -4.98203,8.09436 -6.94433,12.41023 -3.01314,6.62712 -4.73965,13.77231 -7.35265,20.56785 -1.4799,3.84793 -2.65939,7.86091 -4.71335,11.43432 -3.22428,5.60963 -6.78958,10.43692 -11.7812,15.42021 -25.21861,25.1764 -59.26951,60.49951 -59.26951,60.49951 z"
         style="fill:#ffffff;stroke:none" />
      <path
         inkscape:transform-center-y="142.17314"
         inkscape:transform-center-x="47.120486"
         sodipodi:nodetypes="ccccssssccssaaasc"
         inkscape:connector-curvature="0"
         id="path5758-606"
         d="m 271.13644,790.76501 -15.5755,-5.2855 30.58976,-58.54558 13.37797,-27.12849 c 0,0 2.7165,-8.44524 2.98311,-12.82746 0.63483,-10.43437 -3.3683,-20.72718 -3.34761,-31.18082 0.0116,-5.86895 0.60079,-11.78689 1.94871,-17.49835 1.27275,-5.39301 3.72934,-12.42984 5.74055,-15.59839 4.55691,-7.17922 9.72376,-16.11608 17.10476,-21.5508 9.54678,-9.90658 23.58051,-12.26483 18.7004,-4.15721 -3.22874,7.15433 -2.78061,6.46142 -8.03846,16.98649 -5.46169,10.93314 -10.54389,22.76383 -14.93154,34.45476 -1.66601,4.43918 -2.2425,9.24092 -2.77805,13.95318 -0.82234,7.23575 -0.26124,14.56576 -0.65109,21.83778 -0.22104,4.11782 -0.10546,8.29957 -0.95712,12.33412 -1.33688,6.33348 -3.23931,12.02855 -6.45021,18.31371 -16.22204,31.75369 -37.71568,75.89256 -37.71568,75.89256 z"
         style="fill:#ffffff;stroke:none" />
      <path
         inkscape:transform-center-y="147.73719"
         inkscape:transform-center-x="0.4689733"
         sodipodi:nodetypes="ccccssssccssaaasc"
         inkscape:connector-curvature="0"
         id="path5758-61"
         d="m 349.19451,803.14457 -16.44328,-0.20301 11.0414,-65.15229 4.35876,-29.9432 c 0,0 -0.0204,-8.87298 -1.11804,-13.12319 -2.61355,-10.12003 -9.59453,-18.66907 -12.79813,-28.61725 -1.79859,-5.58515 -3.06295,-11.39578 -3.54204,-17.245 -0.45238,-5.5231 -0.2857,-12.97615 0.65012,-16.61241 2.12036,-8.23894 4.27886,-18.33834 9.62307,-25.7928 6.02514,-12.37808 18.64521,-18.96706 16.50372,-9.74507 -0.86483,7.80391 -0.65227,7.00616 -2.40761,18.64418 -1.82338,12.08924 -3.00912,24.91455 -3.57733,37.39184 -0.21576,4.73776 0.71653,9.48291 1.66017,14.13028 1.44895,7.13612 4.24317,13.93329 6.11421,20.97009 1.05946,3.98463 2.45874,7.92584 2.89279,12.02656 0.68137,6.43739 0.62803,12.44276 -0.48785,19.41456 -5.63754,35.2227 -12.46996,83.85672 -12.46996,83.85672 z"
         style="fill:#ffffff;stroke:none" />
      <path
         inkscape:transform-center-y="141.18285"
         inkscape:transform-center-x="-45.617555"
         sodipodi:nodetypes="ccccssssccssaaasc"
         inkscape:connector-curvature="0"
         id="path5758-84"
         d="m 427.25109,790.74365 -15.70147,4.89933 -9.58775,-65.38143 -5.08714,-29.82686 c 0,0 -2.75529,-8.43218 -5.10975,-12.13434 -5.60609,-8.81507 -14.88157,-14.78351 -20.99586,-23.25241 -3.43272,-4.75465 -6.42687,-9.88917 -8.68608,-15.3036 -2.13323,-5.11255 -4.27278,-12.25226 -4.50395,-16.00028 -0.52375,-8.49218 -1.58487,-18.76552 1.19938,-27.51004 1.91376,-13.63792 11.8848,-23.81264 12.69158,-14.37903 1.58373,7.68963 1.53992,6.8651 3.45891,18.47687 1.99339,12.06196 4.82023,24.62646 8.12705,36.66874 1.25563,4.5726 3.60543,8.79666 5.93586,12.92422 3.57842,6.33795 8.33179,11.93691 12.281,18.0497 2.23626,3.46141 4.78232,6.77627 6.45955,10.54178 2.63294,5.91114 4.43389,11.63896 5.52229,18.61495 5.4988,35.24387 13.99638,83.6124 13.99638,83.6124 z"
         style="fill:#ffffff;stroke:none" />
      <path
         inkscape:transform-center-y="120.70877"
         inkscape:transform-center-x="-89.37676"
         sodipodi:nodetypes="ccccssssccssaaasc"
         inkscape:connector-curvature="0"
         id="path5758-96"
         d="m 497.66548,754.77614 -13.4227,9.52212 -29.2784,-59.21062 -14.03507,-26.79085 c 0,0 -5.22047,-7.16597 -8.60127,-9.95768 -8.04986,-6.64724 -18.7119,-9.45083 -27.13837,-15.61146 -4.73084,-3.45873 -9.1617,-7.41455 -12.97986,-11.86419 -3.60528,-4.20155 -7.84162,-10.32904 -9.21713,-13.82193 -3.11662,-7.91413 -7.2935,-17.3558 -7.34173,-26.5344 -2.38498,-13.5628 3.96103,-26.32728 7.6371,-17.60546 3.87725,6.82261 3.58134,6.05203 8.98683,16.50089 5.61506,10.85397 12.17773,21.92778 19.03588,32.35627 2.60413,3.95982 6.14143,7.24933 9.63054,10.45304 5.3576,4.91938 11.60483,8.77208 17.24565,13.36247 3.19414,2.59936 6.63776,4.96341 9.39398,8.02508 4.32678,4.80628 7.80576,9.69589 10.99188,15.99321 16.09686,31.81513 39.09267,75.18351 39.09267,75.18351 z"
         style="fill:#ffffff;stroke:none" />
      <path
         inkscape:transform-center-y="45.717873"
         inkscape:transform-center-x="140.873"
         sodipodi:nodetypes="ccccssssccssaaasc"
         inkscape:connector-curvature="0"
         id="path5758-37"
         d="m 108.94833,628.25235 -4.88738,-15.73562 65.2388,-9.61384 29.76182,-5.10062 c 0,0 8.41393,-2.762 12.1081,-5.12191 8.79618,-5.61908 14.75224,-14.91538 23.20303,-21.04378 4.74451,-3.44062 9.868,-6.44177 15.27074,-8.70634 5.1015,-2.13832 12.22572,-4.28311 15.96552,-4.51507 8.47361,-0.52557 18.7245,-1.58981 27.44964,1.19988 13.60783,1.91691 23.75948,11.90911 14.34651,12.7184 -7.67289,1.58779 -6.85018,1.54382 -18.43663,3.46791 -12.03563,1.99872 -24.57284,4.83271 -36.58894,8.1477 -4.56266,1.25878 -8.77766,3.61407 -12.89634,5.94993 -6.32433,3.58677 -11.91165,8.35064 -18.01104,12.30936 -3.45399,2.24146 -6.76178,4.79339 -10.51916,6.47457 -5.89838,2.63917 -11.6138,4.44452 -18.57455,5.53586 -35.16702,5.51356 -83.43009,14.03355 -83.43009,14.03355 z"
         style="fill:#ffffff;stroke:none" />
      <path
         inkscape:transform-center-y="-0.47000753"
         inkscape:transform-center-x="147.41294"
         sodipodi:nodetypes="ccccssssccssaaasc"
         inkscape:connector-curvature="0"
         id="path5758-88"
         d="m 96.58059,550.02516 0.203847,-16.47943 65.008553,11.06067 29.8772,4.36602 c 0,0 8.85354,-0.0211 13.09449,-1.12151 10.09805,-2.62006 18.62886,-9.61702 28.55547,-12.82844 5.57307,-1.80295 11.37104,-3.07055 17.20747,-3.55115 5.51103,-0.45378 12.94771,-0.28731 16.57592,0.65028 8.22074,2.12439 18.29781,4.28687 25.73553,9.64223 12.35045,6.03743 18.924,18.68474 9.72241,16.53928 -7.78674,-0.86615 -6.99075,-0.65319 -18.60312,-2.41149 -12.06257,-1.82645 -24.8597,-3.01382 -37.30953,-3.58234 -4.72739,-0.21584 -9.46221,0.71886 -14.09944,1.66491 -7.1206,1.45269 -13.90322,4.25313 -20.92456,6.12924 -3.97598,1.06213 -7.90866,2.4648 -12.00044,2.90009 -6.42332,0.68336 -12.41551,0.63034 -19.37192,-0.48743 -35.14503,-5.64724 -83.671849,-12.49094 -83.671849,-12.49094 z"
         style="fill:#ffffff;stroke:none" />
      <path
         inkscape:transform-center-y="-47.224088"
         inkscape:transform-center-x="141.86112"
         sodipodi:nodetypes="ccccssssccssaaasc"
         inkscape:connector-curvature="0"
         id="path5758-29"
         d="m 108.93898,471.79458 5.27512,-15.61012 58.41484,30.65249 27.06797,13.40528 c 0,0 8.42653,2.72182 12.7991,2.98867 10.41142,0.63544 20.68195,-3.37727 31.1127,-3.35735 5.85608,0.0112 11.76099,0.60122 17.45983,1.95165 5.38108,1.27517 12.40227,3.7366 15.56373,5.75197 7.16316,4.56639 16.08001,9.74392 21.50225,17.14073 9.88412,9.56697 12.23611,23.63139 4.14662,18.74117 -7.13837,-3.2353 -6.44703,-2.78624 -16.94861,-8.05483 -10.90875,-5.47283 -22.71311,-10.56534 -34.37802,-14.96171 -4.42934,-1.66934 -9.22052,-2.24672 -13.92239,-2.78309 -7.21985,-0.82359 -14.53382,-0.26069 -21.78983,-0.65084 -4.10878,-0.22119 -8.28139,-0.10505 -12.30702,-0.95827 -6.31949,-1.33936 -12.00192,-3.24554 -18.27304,-6.463 -31.6828,-16.25526 -75.72322,-37.79275 -75.72322,-37.79275 z"
         style="fill:#ffffff;stroke:none" />
      <path
         inkscape:transform-center-y="-88.335842"
         inkscape:transform-center-x="122.08958"
         sodipodi:nodetypes="ccccssssccssaaasc"
         inkscape:connector-curvature="0"
         id="path5758-135"
         d="m 144.81376,401.21837 9.83002,-13.21279 46.10309,47.24383 21.60914,21.13236 c 0,0 7.17465,5.19831 11.25085,6.80629 9.70567,3.82873 20.71056,3.19306 30.62439,6.44238 5.56587,1.82426 10.99971,4.21413 16.0031,7.26341 4.7244,2.87929 10.64283,7.39475 13.02807,10.29061 5.4044,6.5614 12.28817,14.24716 15.16418,22.96137 6.45025,12.16003 4.35045,26.26482 -1.83507,19.10856 -5.79125,-5.28776 -5.27223,-4.64656 -13.63507,-12.90972 -8.68707,-8.5835 -18.3432,-17.08265 -28.08134,-24.87652 -3.69772,-2.95943 -8.07625,-4.99238 -12.38252,-6.95865 -6.61234,-3.01927 -13.74175,-4.74902 -20.52215,-7.36724 -3.83939,-1.48284 -7.84348,-2.66463 -11.40891,-4.72283 -5.59707,-3.23095 -10.41349,-6.80371 -15.38546,-11.80592 -25.11925,-25.2721 -60.36229,-59.39512 -60.36229,-59.39512 z"
         style="fill:#ffffff;stroke:none" />
      <path
         inkscape:transform-center-y="-120.70874"
         inkscape:transform-center-x="89.376736"
         sodipodi:nodetypes="ccccssssccssaaasc"
         inkscape:connector-curvature="0"
         id="path5758-984"
         d="m 200.69329,345.20504 13.4227,-9.52213 29.27841,59.21062 14.03507,26.79085 c 0,0 5.22047,7.16598 8.60126,9.95768 8.04987,6.64723 18.71189,9.45082 27.13838,15.61146 4.73083,3.45876 9.1617,7.41456 12.97987,11.86418 3.60527,4.20158 7.8416,10.32906 9.21712,13.82196 3.11662,7.91413 7.2935,17.35579 7.34174,26.53439 2.38499,13.56278 -3.96105,26.32727 -7.63712,17.60546 -3.87725,-6.82262 -3.58136,-6.05204 -8.98683,-16.50091 -5.61506,-10.85395 -12.17773,-21.92779 -19.03587,-32.35626 -2.60414,-3.95982 -6.14143,-7.24934 -9.63054,-10.45304 -5.35761,-4.91938 -11.60455,-8.77248 -17.24564,-13.36246 -3.19416,-2.59935 -6.6378,-4.96339 -9.394,-8.0251 -4.32677,-4.80628 -7.80573,-9.69589 -10.99187,-15.99319 -16.09685,-31.81513 -39.09266,-75.1835 -39.09266,-75.1835 z"
         style="fill:#ffffff;stroke:none" />
      <path
         inkscape:transform-center-y="-141.18282"
         inkscape:transform-center-x="45.617543"
         sodipodi:nodetypes="ccccssssccssaaasc"
         inkscape:connector-curvature="0"
         id="path5758-07"
         d="m 271.10766,309.23753 15.70148,-4.89934 9.58776,65.38146 5.08714,29.82683 c 0,0 2.7553,8.43219 5.10976,12.13434 5.60607,8.81507 14.88156,14.7835 20.99585,23.25241 3.4327,4.75467 6.42686,9.88918 8.68609,15.3036 2.13321,5.11257 4.27275,12.25227 4.50392,16.00029 0.52378,8.49219 1.5849,18.76552 -1.19935,27.51005 -1.91374,13.6379 -11.88482,23.81262 -12.69161,14.37901 -1.58371,-7.68962 -1.5399,-6.8651 -3.4589,-18.47687 -1.9934,-12.06194 -4.82021,-24.62648 -8.12703,-36.66873 -1.25565,-4.5726 -3.60543,-8.79668 -5.93587,-12.92422 -3.57843,-6.33796 -8.33141,-11.93722 -12.281,-18.04969 -2.23627,-3.46141 -4.78235,-6.77627 -6.45956,-10.54179 -2.63293,-5.91115 -4.43387,-11.63897 -5.52228,-18.61495 -5.49878,-35.24387 -13.99638,-83.61238 -13.99638,-83.61238 z"
         style="fill:#ffffff;stroke:none" />
      <path
         inkscape:transform-center-y="-147.73716"
         inkscape:transform-center-x="-0.4689712"
         sodipodi:nodetypes="ccccssssccssaaasc"
         inkscape:connector-curvature="0"
         id="path5758-63"
         d="m 349.16425,296.8366 16.44327,0.20301 -11.0414,65.1523 -4.35875,29.9432 c 0,0 0.0204,8.87298 1.11804,13.1232 2.61355,10.12001 9.59453,18.66905 12.79812,28.61723 1.79856,5.58516 3.06295,11.39578 3.54206,17.24501 0.45236,5.5231 0.28568,12.97614 -0.65014,16.61241 -2.12034,8.23896 -4.27886,18.33835 -9.62306,25.79282 -6.02512,12.37807 -18.64521,18.96703 -16.50375,9.74505 0.86486,-7.80391 0.65229,-7.00617 2.40763,-18.64418 1.82339,-12.08923 3.00911,-24.91457 3.57733,-37.39183 0.21576,-4.73777 -0.71652,-9.48293 -1.66016,-14.13029 -1.44896,-7.13613 -4.24272,-13.93345 -6.11421,-20.97008 -1.05948,-3.98465 -2.45878,-7.92584 -2.8928,-12.02658 -0.68137,-6.43738 -0.62802,-12.44275 0.48786,-19.41454 5.63754,-35.22271 12.46997,-83.85672 12.46997,-83.85672 z"
         style="fill:#ffffff;stroke:none" />
      <path
         inkscape:transform-center-y="-142.17311"
         inkscape:transform-center-x="-47.120469"
         sodipodi:nodetypes="ccccssssccssaaasc"
         inkscape:connector-curvature="0"
         id="path5758-615"
         d="m 427.22231,309.21615 15.57549,5.28551 -30.58975,58.54559 -13.37797,27.12849 c 0,0 -2.7165,8.44524 -2.98311,12.82746 -0.63484,10.43436 3.36831,20.72717 3.34761,31.18082 -0.0116,5.86895 -0.6008,11.78689 -1.9487,17.49834 -1.27278,5.39301 -3.72936,12.42983 -5.74055,15.5984 -4.55692,7.17924 -9.72377,16.11608 -17.10479,21.55081 -9.54675,9.90657 -23.58049,12.26482 -18.7004,4.15718 3.22876,-7.15431 2.78063,-6.46141 8.03847,-16.98648 5.46169,-10.93313 10.54391,-22.76384 14.93153,-34.45473 1.66602,-4.4392 2.24252,-9.24095 2.77805,-13.9532 0.82234,-7.23576 0.26125,-14.56577 0.65111,-21.83778 0.22102,-4.11783 0.10546,-8.29958 0.95711,-12.33412 1.33689,-6.33348 3.23932,-12.02855 6.45022,-18.31371 16.22204,-31.75369 37.71568,-75.89256 37.71568,-75.89256 z"
         style="fill:#ffffff;stroke:none" />
      <path
         inkscape:transform-center-y="-122.35808"
         inkscape:transform-center-x="-88.142007"
         sodipodi:nodetypes="ccccssssccssaaasc"
         inkscape:connector-curvature="0"
         id="path5758-42"
         d="m 497.64099,345.16438 13.18307,9.85062 -47.14376,46.20801 -21.08768,21.65827 c 0,0 -5.18747,7.19081 -6.79224,11.27609 -3.82108,9.7273 -3.18762,20.75635 -6.43059,30.6922 -1.82069,5.57824 -4.20574,11.0242 -7.24871,16.03882 -2.87332,4.73501 -7.37934,10.6668 -10.26903,13.0575 -6.54743,5.41678 -14.21686,12.31628 -22.91219,15.19926 -12.13385,6.46535 -26.20755,4.36205 -19.0665,-1.83762 5.2766,-5.80439 4.63677,-5.28418 12.88244,-13.66603 8.56536,-8.70682 17.04658,-18.38482 24.82412,-28.14497 2.95322,-3.70608 4.98205,-8.09439 6.94434,-12.41026 3.01315,-6.62712 4.73966,-13.77232 7.35266,-20.56783 1.47989,-3.84795 2.65941,-7.86091 4.71335,-11.43434 3.22428,-5.60961 6.78958,-10.43691 11.7812,-15.42019 25.21861,-25.1764 59.26951,-60.49951 59.26951,-60.49951 z"
         style="fill:#ffffff;stroke:none" />
      <path
         inkscape:transform-center-y="-89.5733"
         inkscape:transform-center-x="-120.44387"
         sodipodi:nodetypes="ccccssssccssaaasc"
         inkscape:connector-curvature="0"
         id="path5758-09"
         d="m 553.5272,401.16243 9.50022,13.45147 -59.08301,29.34729 -26.73318,14.06797 c 0,0 -7.15066,5.23251 -9.93651,8.62094 -6.63328,8.06807 -9.43152,18.75375 -15.57931,27.19923 -3.45152,4.74147 -7.39898,9.18239 -11.83916,13.00929 -4.19261,3.61352 -10.30698,7.85962 -13.79232,9.23844 -7.89703,3.12409 -17.3183,7.31087 -26.47677,7.35991 -13.53323,2.39126 -26.26923,-3.96771 -17.56627,-7.65255 6.80795,-3.88629 6.03905,-3.58969 16.46539,-9.00785 10.8306,-5.62822 21.88063,-12.20618 32.28677,-19.08019 3.95133,-2.61017 7.23391,-6.15548 10.43087,-9.65251 4.90901,-5.36976 8.7541,-11.63072 13.33449,-17.28456 2.59389,-3.2014 4.95299,-6.65276 8.0082,-9.41527 4.79607,-4.33665 9.67522,-7.82364 15.95896,-11.01724 31.74659,-16.13468 75.02162,-39.18435 75.02162,-39.18435 z"
         style="fill:#ffffff;stroke:none" />
      <path
         inkscape:transform-center-y="-45.717865"
         inkscape:transform-center-x="-140.87302"
         sodipodi:nodetypes="ccccssssccssaaasc"
         inkscape:connector-curvature="0"
         id="path5758-73"
         d="m 589.41044,471.72882 4.88739,15.7356 -65.23881,9.61385 -29.76183,5.1006 c 0,0 -8.41391,2.76199 -12.10812,5.12191 -8.79617,5.61908 -14.75222,14.91541 -23.20301,21.04378 -4.74451,3.4406 -9.86799,6.44176 -15.27073,8.70635 -5.10149,2.13831 -12.22571,4.2831 -15.96552,4.51507 -8.47361,0.52557 -18.72449,1.5898 -27.44963,-1.1999 -13.60785,-1.91691 -23.75949,-11.90909 -14.34651,-12.71838 7.67288,-1.5878 6.85017,-1.54383 18.4366,-3.46792 12.03566,-1.9987 24.57284,-4.83271 36.58896,-8.14772 4.56265,-1.25876 8.77766,-3.61403 12.89633,-5.9499 6.32434,-3.58677 11.91166,-8.35063 18.01106,-12.30937 3.45399,-2.24146 6.76177,-4.79339 10.51915,-6.47457 5.89838,-2.63918 11.61379,-4.44453 18.57454,-5.53585 35.16703,-5.51357 83.43011,-14.03354 83.43011,-14.03354 z"
         style="fill:#ffffff;stroke:none" />
      <path
         inkscape:transform-center-y="0.4700029"
         inkscape:transform-center-x="-147.41297"
         sodipodi:nodetypes="ccccssssccssaaasc"
         inkscape:connector-curvature="0"
         id="path5758-72"
         d="m 601.77818,549.956 -0.20384,16.47943 -65.00857,-11.06067 -29.8772,-4.36603 c 0,0 -8.85352,0.0211 -13.0945,1.1215 -10.09803,2.62005 -18.62885,9.61704 -28.55546,12.82844 -5.57304,1.80294 -11.37101,3.07055 -17.20747,3.55115 -5.511,0.4538 -12.94769,0.28732 -16.57591,-0.65027 -8.22073,-2.12439 -18.2978,-4.28687 -25.73551,-9.64224 -12.35046,-6.03744 -18.92402,-18.68472 -9.72243,-16.53926 7.78674,0.86613 6.99075,0.65317 18.60311,2.41147 12.06259,1.82647 24.85968,3.01382 37.30955,3.58233 4.72737,0.21586 9.46219,-0.71883 14.09942,-1.66489 7.12061,-1.45269 13.90321,-4.25313 20.92458,-6.12923 3.97598,-1.06214 7.90865,-2.46481 12.00042,-2.90011 6.42332,-0.68336 12.41551,-0.63035 19.37192,0.48743 35.14504,5.64725 83.67187,12.49095 83.67187,12.49095 z"
         style="fill:#ffffff;stroke:none" />
      <path
         inkscape:transform-center-y="47.22411"
         inkscape:transform-center-x="-141.86114"
         sodipodi:nodetypes="ccccssssccssaaasc"
         inkscape:connector-curvature="0"
         id="path5758-601"
         d="m 589.41979,628.18658 -5.2751,15.61014 -58.41484,-30.65249 -27.06798,-13.40531 c 0,0 -8.4265,-2.72181 -12.7991,-2.98868 -10.41142,-0.63544 -20.68196,3.3773 -31.1127,3.35736 -5.85607,-0.0112 -11.76097,-0.60122 -17.45982,-1.95166 -5.38107,-1.27514 -12.40226,-3.73658 -15.56372,-5.75195 -7.16316,-4.56639 -16.08001,-9.74392 -21.50224,-17.14074 -9.88412,-9.56698 -12.23613,-23.63137 -4.14665,-18.74116 7.13838,3.23529 6.44704,2.78623 16.94861,8.05481 10.90876,5.47287 22.71311,10.56535 34.37805,14.96172 4.42931,1.66935 9.22049,2.24673 13.92237,2.78309 7.21984,0.8236 14.5338,0.26069 21.78983,0.65086 4.10877,0.22119 8.28137,0.10504 12.30701,0.95826 6.31949,1.33934 12.00193,3.24553 18.27304,6.46299 31.68282,16.25527 75.72324,37.79276 75.72324,37.79276 z"
         style="fill:#ffffff;stroke:none" />
      <path
         inkscape:connector-curvature="0"
         id="path6627"
         d="m 164.88407,355.84035 -1.53318,-1.94872 1.5264,-1.45314 c 1.59266,-1.5162 1.76191,-1.82832 1.78754,-3.29648 0.007,-0.37429 -0.17349,-1.08746 -0.40005,-1.58481 -0.46765,-1.02661 -19.47038,-25.28345 -20.88692,-26.66197 -1.06331,-1.03478 -1.71137,-1.34454 -2.85474,-1.36449 -1.0925,-0.0191 -1.5299,0.16603 -3.14247,1.32985 l -1.3105,0.94584 -1.55585,-1.97343 -1.55587,-1.97342 0.91318,-0.74553 c 2.38408,-1.94636 14.3525,-11.3143 14.54459,-11.38435 0.11986,-0.0437 7.13522,3.15998 15.58967,7.11933 8.45446,3.95933 15.42374,7.13869 15.48729,7.06524 0.0636,-0.0735 0.36553,-0.4488 0.67107,-0.83409 l 0.55553,-0.70051 -6.19169,-7.87058 c -6.6597,-8.46549 -7.43743,-9.37116 -8.41693,-9.80156 -1.44179,-0.63354 -2.68686,-0.30721 -4.73468,1.24096 -0.60908,0.46046 -1.12445,0.81101 -1.14528,0.779 -0.0208,-0.0321 -0.7292,-0.93442 -1.57414,-2.00535 l -1.53631,-1.94714 6.32269,-4.97226 c 3.47746,-2.73476 6.96213,-5.48165 7.74373,-6.1042 l 1.42106,-1.13194 1.56154,2.00534 1.56154,2.00534 -0.9354,0.805 c -1.89354,1.62955 -2.23573,2.13216 -2.40461,3.53169 -0.11985,0.99351 0.16689,1.77163 1.19174,3.23394 0.30364,0.43326 6.1421,7.88411 12.97435,16.55744 6.83226,8.67332 12.41754,15.81268 12.41172,15.86522 -0.0235,0.21223 -6.91418,5.4956 -7.15729,5.48778 -0.14416,-0.005 -8.99238,-4.08297 -19.66271,-9.06295 l -19.40062,-9.05449 -0.6786,0.76007 c -0.37323,0.41805 -0.66269,0.81757 -0.6432,0.88783 0.0653,0.23575 16.9021,21.58268 17.88959,22.68181 1.12869,1.25627 1.8245,1.65646 2.91308,1.67546 1.01938,0.0178 2.02615,-0.41301 3.41586,-1.46168 0.62201,-0.46937 1.18692,-0.81736 1.25531,-0.77333 0.0684,0.044 0.79813,0.92622 1.62161,1.96041 l 1.49724,1.88034 -7.40475,5.83623 c -4.07262,3.20993 -7.58309,5.96331 -7.80106,6.11863 -0.39244,0.27965 -0.41116,0.26347 -1.92948,-1.66633 z"
         style="color:#000000;fill:#000000;fill-opacity:1;fill-rule:nonzero;stroke:none;stroke-width:0.86299998;marker:none;visibility:visible;display:inline;overflow:visible;enable-background:accumulate" />
      <path
         inkscape:connector-curvature="0"
         id="path6629"
         d="m 223.39248,315.04012 c -2.25085,-0.23106 -3.54889,-0.59692 -5.95395,-1.67811 -2.62727,-1.18109 -4.33358,-2.74861 -6.20661,-5.70175 -0.67202,-1.05957 -3.34742,-6.36701 -6.51585,-12.92614 -2.95661,-6.12065 -5.67221,-11.60238 -6.03466,-12.18163 -1.32628,-2.11961 -2.65047,-2.49354 -5.22005,-1.47403 -0.84988,0.3372 -1.66229,0.64676 -1.80535,0.68791 -0.18823,0.0541 -0.54748,-0.53018 -1.30021,-2.11492 -0.57206,-1.20437 -1.03945,-2.22774 -1.03864,-2.27416 0.002,-0.10544 21.24911,-10.301 21.31315,-10.22717 0.12357,0.14248 2.08143,4.33741 2.07815,4.45268 -0.002,0.0728 -0.51507,0.39312 -1.14001,0.71193 -2.70842,1.38172 -3.52653,2.81571 -2.93349,5.14188 0.29618,1.16172 10.14432,21.62735 11.28603,23.45372 1.81409,2.90196 3.64953,4.59954 5.98086,5.53162 0.93819,0.3751 1.41893,0.452 3.0135,0.4821 1.62689,0.0304 2.0935,-0.0285 3.27457,-0.41552 3.23273,-1.05926 5.75506,-3.09451 7.07183,-5.70622 0.9251,-1.83492 1.16977,-2.90898 1.11075,-4.87644 -0.0787,-2.62495 -0.68621,-4.13922 -6.7558,-16.83937 -5.63891,-11.79906 -5.63661,-11.79492 -6.97178,-12.53339 -0.8049,-0.44518 -2.10301,-0.32761 -3.67321,0.33269 -0.81256,0.3417 -1.55724,0.65401 -1.65485,0.69402 -0.17848,0.0732 -2.38624,-4.39215 -2.2382,-4.52689 0.16012,-0.14575 17.60451,-8.46783 17.64106,-8.41591 0.0207,0.0296 0.53735,1.04941 1.14792,2.26635 l 1.1101,2.21263 -1.30807,0.69414 c -1.63767,0.86902 -2.27875,1.38745 -2.69191,2.17686 -0.51787,0.98948 -0.61533,1.82439 -0.33403,2.86149 0.1387,0.51132 2.67598,5.97873 5.63841,12.1498 6.59613,13.7405 6.98606,14.82726 6.92006,19.28732 -0.0311,2.12584 -0.10334,2.72867 -0.47298,3.96873 -1.15746,3.88271 -3.49546,7.16525 -6.93182,9.73219 -3.79996,2.83856 -8.88777,4.87544 -12.66305,5.06959 -0.71235,0.0366 -1.48957,0.0846 -1.7272,0.10654 -0.23761,0.0218 -1.14421,-0.0332 -2.01467,-0.12258 l 0,0 z"
         style="color:#000000;fill:#000000;fill-opacity:1;fill-rule:nonzero;stroke:none;stroke-width:0.86299998;marker:none;visibility:visible;display:inline;overflow:visible;enable-background:accumulate" />
      <path
         inkscape:connector-curvature="0"
         id="path6631"
         d="m 276.56556,295.55646 c -0.13214,-0.40224 -1.04888,-4.45592 -1.04593,-4.62495 0.002,-0.0894 0.35387,-0.24455 0.78293,-0.3449 2.58323,-0.60414 3.73453,-1.36772 4.21006,-2.79222 0.28408,-0.85099 0.2872,-1.01791 0.0463,-2.4808 -0.20266,-1.23148 -5.96871,-25.94402 -7.50681,-32.17325 -0.19993,-0.80977 -0.51192,-1.55491 -0.80225,-1.91605 -0.4522,-0.56248 -0.52794,-0.59098 -1.57228,-0.59157 -2.44149,-0.001 -5.26987,1.98438 -7.3933,5.19076 -1.20966,1.82657 -1.75451,3.22621 -2.73274,7.02008 l -0.47704,1.85013 -0.63036,-0.0962 c -0.3467,-0.0529 -1.51888,-0.19379 -2.60485,-0.31304 -1.08598,-0.11926 -1.98667,-0.23263 -2.00153,-0.25198 -0.0149,-0.0193 0.37447,-3.76304 0.86515,-8.31937 0.49071,-4.55633 0.89979,-8.52734 0.90909,-8.82446 0.0164,-0.53852 0.0223,-0.54149 1.72407,-0.9377 l 1.70716,-0.39747 0.39646,0.75857 c 0.21805,0.41721 0.51453,0.75963 0.65882,0.76094 0.1443,0.002 7.08409,-1.61441 15.42172,-3.59045 l 15.15935,-3.59281 0.10543,-0.88301 c 0.058,-0.48566 0.14322,-0.91946 0.18935,-0.96399 0.11125,-0.10741 2.84385,-0.7537 3.16315,-0.74813 0.23541,0.004 9.70584,14.48227 9.69979,14.82879 -0.002,0.0894 -0.98176,0.78805 -2.17823,1.55261 l -2.1754,1.3901 -2.33498,-2.45666 c -2.56303,-2.6966 -4.01279,-3.79549 -6.30641,-4.78018 -1.93325,-0.82994 -3.63797,-1.20268 -4.99523,-1.09218 -2.2598,0.18398 -3.24038,0.95223 -3.24068,2.53898 -1.5e-4,0.87406 7.08739,31.2633 7.85672,33.68717 0.84942,2.67621 2.12039,3.36262 5.11349,2.76165 0.84546,-0.16975 1.62849,-0.30705 1.74008,-0.30511 0.2862,0.005 1.39863,4.86711 1.13396,4.9563 -0.10966,0.037 -5.14985,1.23204 -11.20043,2.65575 -6.05055,1.42373 -11.13793,2.62581 -11.30524,2.67131 -0.16732,0.0455 -0.33813,-0.0205 -0.37959,-0.14667 z"
         style="color:#000000;fill:#000000;fill-opacity:1;fill-rule:nonzero;stroke:none;stroke-width:0.86299998;marker:none;visibility:visible;display:inline;overflow:visible;enable-background:accumulate" />
      <path
         inkscape:connector-curvature="0"
         id="path6633"
         d="m 319.20245,285.50082 c -0.0526,-0.44215 -0.0824,-1.56259 -0.0663,-2.48988 0.0336,-1.92753 0.007,-1.8951 1.55644,-1.87128 1.92187,0.0295 3.48409,-0.61754 4.19558,-1.73776 0.18009,-0.28357 0.38377,-0.94254 0.4526,-1.4644 0.18468,-1.40037 -0.30428,-33.66758 -0.52291,-34.50518 -0.50818,-1.94709 -1.61156,-2.61844 -4.3648,-2.65576 l -1.74908,-0.0235 -0.0918,-0.77108 c -0.0505,-0.4241 -0.0772,-1.60924 -0.0593,-2.63367 l 0.0325,-1.86257 1.25218,-0.0754 c 0.68871,-0.0415 8.2949,-0.15776 16.90264,-0.25842 14.94307,-0.17473 15.77739,-0.1681 18.45848,0.14668 3.47363,0.40782 4.90625,0.79948 7.09325,1.93916 3.59232,1.87201 5.9754,4.87498 6.76378,8.52319 0.33417,1.54645 0.27764,4.63635 -0.1106,6.05001 -0.50949,1.85457 -1.66599,3.81045 -3.03317,5.12973 -2.81865,2.71986 -5.84092,4.21109 -11.01428,5.43454 -0.41113,0.0972 -0.72428,0.2448 -0.69585,0.32793 0.10667,0.31211 13.71117,15.63525 14.34325,16.15521 1.28317,1.05555 2.45755,1.46579 4.58277,1.6009 l 1.92623,0.12244 0.0139,2.44069 c 0.008,1.34237 -0.0102,2.47641 -0.04,2.52008 -0.0628,0.0933 -14.01654,0.30468 -14.82377,0.22458 -0.50536,-0.0501 -1.2362,-0.95177 -9.136,-11.27079 l -8.58669,-11.21628 -3.04909,-0.0356 c -1.67699,-0.0193 -3.07702,-0.005 -3.11119,0.0322 -0.14459,0.1577 0.1656,13.69431 0.33567,14.64845 0.21553,1.20928 0.83031,2.10133 1.77015,2.56859 0.45989,0.22863 1.12888,0.32438 2.58722,0.3703 l 1.96696,0.0619 -0.0442,2.5497 c -0.0243,1.40233 -0.10241,2.54992 -0.17361,2.5502 -0.0712,7.6e-4 -4.9443,0.0696 -10.82915,0.15402 -5.88485,0.0844 -11.13548,0.14716 -11.66809,0.13939 l -0.96841,-0.0139 -0.0957,-0.80391 z m 23.1522,-27.93124 c 6.49292,-0.0484 9.03444,-0.39844 11.22837,-1.54652 2.36148,-1.23579 3.74742,-3.13892 4.06385,-5.58043 0.56153,-4.33251 -1.71774,-7.54093 -6.01521,-8.4674 -1.53296,-0.33048 -4.77991,-0.43154 -11.22557,-0.3494 l -4.38449,0.0559 0.0381,4.34555 c 0.0209,2.39005 0.0601,6.00289 0.087,8.02853 l 0.049,3.68299 1.13822,-0.0702 c 0.62603,-0.0386 2.88534,-0.0831 5.02073,-0.0991 z"
         style="color:#000000;fill:#000000;fill-opacity:1;fill-rule:nonzero;stroke:none;stroke-width:0.86299998;marker:none;visibility:visible;display:inline;overflow:visible;enable-background:accumulate" />
      <path
         inkscape:connector-curvature="0"
         id="path6635"
         d="m 391.37458,289.35332 c -6.14714,-1.00609 -11.20701,-1.8608 -11.24418,-1.89936 -0.0693,-0.072 0.52012,-4.07628 0.67862,-4.61039 0.0796,-0.26812 0.29231,-0.28298 2.19286,-0.15316 1.80342,0.12319 2.19135,0.10196 2.70967,-0.1484 1.17759,-0.56877 1.75503,-1.63053 2.20262,-4.04994 0.94271,-5.09596 4.80312,-29.4996 4.91262,-31.05521 0.14313,-2.03328 0.0173,-2.63154 -0.73619,-3.50118 -0.60342,-0.6964 -1.55496,-1.10647 -3.22636,-1.39037 -1.2556,-0.21328 -1.41794,-0.28243 -1.40845,-0.60002 0.0162,-0.52709 0.69517,-4.57136 0.78099,-4.64896 0.0538,-0.0486 23.25543,3.68303 23.30738,3.74861 0.005,0.006 -0.16668,1.13655 -0.38089,2.51246 l -0.38946,2.50164 -1.12687,-0.15056 c -1.96659,-0.26277 -3.3081,-0.20532 -3.92932,0.16828 -1.06438,0.6401 -1.6054,1.6174 -2.00281,3.61785 -0.10822,0.54475 -1.29117,7.70197 -2.62878,15.90494 -2.51579,15.42819 -2.73286,17.21839 -2.21496,18.26659 0.55624,1.12581 2.0012,1.8283 4.68038,2.2754 0.57679,0.0963 0.71902,0.18519 0.65243,0.40791 -0.0468,0.15665 -0.23642,1.27426 -0.42129,2.48358 -0.33388,2.18396 -0.33915,2.1986 -0.78376,2.17414 -0.24621,-0.0133 -5.47711,-0.84779 -11.62425,-1.85385 l 0,0 z"
         style="color:#000000;fill:#000000;fill-opacity:1;fill-rule:nonzero;stroke:none;stroke-width:0.86299998;marker:none;visibility:visible;display:inline;overflow:visible;enable-background:accumulate" />
      <path
         inkscape:connector-curvature="0"
         id="path6637"
         d="m 433.54379,299.75398 c -6.08477,-2.05372 -11.09512,-3.76463 -11.13414,-3.80204 -0.039,-0.0375 0.28137,-1.14101 0.71192,-2.45246 l 0.78286,-2.38442 1.47873,0.43564 c 0.8133,0.2396 1.82346,0.44166 2.24478,0.44902 1.02421,0.0179 2.18542,-0.54639 2.79348,-1.35746 0.6658,-0.88805 1.03762,-1.92558 6.73493,-18.79345 5.17808,-15.33059 5.31765,-15.82955 4.69978,-16.80242 -0.94864,-1.49368 -4.62819,-1.81593 -8.07637,-0.70733 -2.48056,0.79751 -4.25336,1.93819 -7.14146,4.59504 -1.02748,0.9452 -1.91926,1.71768 -1.98172,1.71659 -0.20046,-0.003 -3.92103,-3.03943 -3.91828,-3.19725 0.001,-0.0837 2.38498,-3.19578 5.29671,-6.91586 2.91173,-3.72009 5.34231,-6.83581 5.40129,-6.92382 0.0618,-0.0923 0.78895,0.0658 1.71881,0.37375 l 1.61157,0.53379 0.002,0.89344 c 4.3e-4,0.49139 0.0358,0.92896 0.0775,0.97233 0.0419,0.0433 6.74875,2.33423 14.90432,5.09074 l 14.82832,5.01187 0.66991,-0.73674 0.66989,-0.73676 1.57575,0.53839 c 0.86666,0.2961 1.59738,0.56084 1.62384,0.58831 0.0695,0.0721 0.30431,14.03526 0.27145,16.13888 l -0.0279,1.77187 -2.67017,-0.0466 c -3.03934,-0.0531 -2.65908,0.18451 -2.9896,-1.86777 -0.32111,-1.99377 -0.84842,-4.17252 -1.28596,-5.31329 -1.72418,-4.4954 -4.90218,-7.67672 -7.71782,-7.72587 -1.10811,-0.0193 -1.83238,0.64949 -2.43889,2.25221 -0.71119,1.8794 -10.07587,29.76255 -10.48854,31.22943 -0.85436,3.03701 -0.13226,4.35144 3.01818,5.49406 0.8009,0.29047 1.48016,0.54716 1.50946,0.57041 0.0747,0.0592 -1.44269,4.61043 -1.57952,4.73773 -0.0615,0.0572 -5.09024,-1.57627 -11.17501,-3.62997 z"
         style="color:#000000;fill:#000000;fill-opacity:1;fill-rule:nonzero;stroke:none;stroke-width:0.86299998;marker:none;visibility:visible;display:inline;overflow:visible;enable-background:accumulate" />
      <path
         inkscape:connector-curvature="0"
         id="path6639"
         d="m 473.13296,316.82603 -10.3776,-5.52953 1.18699,-2.286 1.18699,-2.28599 1.29249,0.67349 c 2.13118,1.11051 3.22776,1.25484 4.50873,0.59345 1.08736,-0.56142 1.2651,-0.86887 9.98709,-17.27441 7.84538,-14.75672 7.71876,-14.49019 7.53428,-15.86082 -0.19157,-1.4232 -0.79675,-2.12485 -2.80465,-3.25162 -0.72828,-0.40869 -1.32353,-0.77923 -1.32275,-0.82341 0.003,-0.17329 2.35454,-4.34424 2.4483,-4.3426 0.093,0.002 20.57926,10.88697 20.69481,10.99618 0.0289,0.0274 -0.47153,1.05402 -1.11224,2.28138 l -1.16491,2.23158 -1.67429,-0.79217 c -1.92054,-0.9087 -2.78876,-1.0131 -3.94928,-0.47487 -1.34476,0.62366 -1.04054,0.0991 -11.85711,20.4432 -5.27049,9.91283 -6.0065,11.43656 -6.02877,12.48104 -0.026,1.20554 1.10067,2.52359 3.10662,3.63527 0.62017,0.34368 1.12699,0.69562 1.12628,0.78207 -0.001,0.18003 -2.10484,4.0746 -2.28479,4.23053 -0.0652,0.0565 -4.78851,-2.38553 -10.49619,-5.42677 l 0,0 z"
         style="color:#000000;fill:#000000;fill-opacity:1;fill-rule:nonzero;stroke:none;stroke-width:0.86299998;marker:none;visibility:visible;display:inline;overflow:visible;enable-background:accumulate" />
      <path
         inkscape:connector-curvature="0"
         id="path6641"
         d="m 526.33651,349.84573 c -3.19348,-0.53695 -5.6863,-1.37345 -8.57642,-2.8779 -5.79718,-3.0177 -10.88741,-7.6774 -13.79034,-12.62391 -3.56438,-6.07365 -4.28056,-13.6923 -1.91818,-20.40521 1.55851,-4.42864 5.2621,-9.68364 8.96842,-12.72524 4.93894,-4.05313 10.37267,-5.98586 16.5268,-5.87844 5.38708,0.094 10.42303,1.85118 15.48954,5.40463 7.04896,4.94386 11.09147,10.84732 12.49987,18.2542 0.39755,2.09072 0.32064,6.96709 -0.1418,8.98897 -0.90843,3.97207 -2.51584,7.37765 -5.13181,10.87264 -4.33454,5.79101 -9.91947,9.46119 -16.4305,10.79739 -1.25262,0.25707 -6.33591,0.38787 -7.4956,0.19287 l 0,0 z m 0.87083,-8.96302 c 4.56545,-1.09919 9.00432,-4.29847 12.84341,-9.2568 3.39648,-4.38667 5.20508,-8.35686 5.71403,-12.54324 0.5874,-4.8318 -1.20873,-9.36255 -4.8343,-12.19444 -4.40095,-3.43756 -9.53841,-3.81033 -15.18568,-1.10187 -4.67698,2.24311 -9.14911,6.66839 -12.25616,12.12773 -3.34138,5.87111 -3.69425,12.59364 -0.89035,16.96196 1.80222,2.80776 5.31021,5.36209 8.35093,6.08073 1.80287,0.42609 4.30373,0.39649 6.25812,-0.0741 l 0,0 z"
         style="color:#000000;fill:#000000;fill-opacity:1;fill-rule:nonzero;stroke:none;stroke-width:0.86299998;marker:none;visibility:visible;display:inline;overflow:visible;enable-background:accumulate" />
      <path
         inkscape:connector-curvature="0"
         id="path6643"
         d="m 564.58652,396.57597 c -1.49673,-1.85684 -2.75665,-3.4665 -2.79983,-3.57703 -0.0432,-0.11054 3.92303,-8.96069 8.8138,-19.66702 4.89075,-10.70633 8.89374,-19.54966 8.89553,-19.65182 0.002,-0.10218 -0.35231,-0.46784 -0.78688,-0.81258 l -0.79012,-0.62679 -0.89391,0.73151 c -0.49163,0.40233 -5.46158,4.38939 -11.04429,8.86013 -5.58274,4.47074 -10.5333,8.50273 -11.00126,8.95999 -1.0053,0.98228 -1.20833,1.40611 -1.20863,2.52287 -2.9e-4,1.03042 0.40061,2.00073 1.34425,3.25371 0.39918,0.53003 0.7941,1.05583 0.87762,1.16843 0.10441,0.14083 -0.43872,0.68421 -1.73919,1.74002 -1.04008,0.84437 -1.94306,1.53523 -2.00665,1.53521 -0.18484,-2.3e-4 -12.39328,-15.28325 -12.30532,-15.40452 0.1914,-0.26385 3.77215,-3.06994 3.86384,-3.02795 0.056,0.0257 0.51052,0.52064 1.01005,1.09996 1.01079,1.17229 1.66558,1.68948 2.54049,2.00665 1.00481,0.36426 2.65644,-0.057 3.90147,-0.9952 1.6899,-1.27334 24.22823,-19.34926 24.91509,-19.9821 1.59444,-1.469 2.13859,-3.09839 1.52912,-4.57881 -0.17797,-0.43228 -0.7136,-1.29085 -1.19032,-1.90793 -0.47671,-0.61708 -0.86197,-1.16748 -0.8561,-1.22311 0.0132,-0.12556 3.56465,-2.94489 3.80483,-3.02049 0.17001,-0.0535 12.48161,15.20382 12.41587,15.38655 -0.0182,0.0506 -3.14896,6.88487 -6.95725,15.18736 -3.80829,8.30249 -6.96717,15.25345 -7.01971,15.44658 -0.073,0.26842 0.0838,0.48501 0.66565,0.91941 0.41866,0.31255 0.80935,0.5691 0.86823,0.57013 0.20082,0.004 15.21796,-12.09398 16.28211,-13.1165 1.93839,-1.86257 2.02681,-3.39312 0.33,-5.71194 -1.31354,-1.79504 -1.24626,-1.59396 -0.68577,-2.04998 2.19665,-1.7872 3.30608,-2.6478 3.41101,-2.64597 0.0678,10e-4 2.86885,3.43557 6.22456,7.63197 l 6.10128,7.62981 -0.49279,0.40065 c -0.27102,0.22037 -1.15338,0.93226 -1.9608,1.58201 l -1.46803,1.18136 -1.20383,-1.31888 c -1.36779,-1.4985 -2.18241,-1.9667 -3.47051,-1.99462 -0.69718,-0.0152 -1.10128,0.096 -1.80793,0.49708 -1.1247,0.63839 0.40207,-0.56387 -17.8667,14.0694 -8.45333,6.7711 -15.40299,12.31051 -15.44368,12.3098 -0.0407,-7.1e-4 -1.29858,-1.52051 -2.7953,-3.37735 l 0,0 z"
         style="color:#000000;fill:#000000;fill-opacity:1;fill-rule:nonzero;stroke:none;stroke-width:0.86299998;marker:none;visibility:visible;display:inline;overflow:visible;enable-background:accumulate" />
      <path
         inkscape:connector-curvature="0"
         id="path6645"
         d="m 618.68287,485.86751 c -3.36658,-1.21266 -6.92652,-2.89543 -8.8681,-4.19189 -6.17958,-4.12635 -10.69188,-11.37712 -11.98274,-19.255 -0.35325,-2.15588 -0.27247,-6.25448 0.16342,-8.29067 2.0526,-9.58858 9.12306,-17.15237 18.83255,-20.14656 3.42807,-1.05714 4.71311,-1.22903 8.64684,-1.15665 3.16865,0.0583 3.6174,0.10595 5.51083,0.58543 8.85861,2.24312 15.27187,8.39579 18.0771,17.34255 1.24318,3.96489 1.64351,7.68361 1.19611,11.11126 -0.13003,0.9963 -0.27682,1.94063 -0.32619,2.09853 -0.10359,0.33127 0.0313,0.38462 1.74816,0.69158 l 1.22287,0.21864 0.5974,1.84176 c 0.32857,1.01298 0.57704,1.85737 0.55216,1.87644 -0.12318,0.0944 -14.40992,9.64398 -14.57489,9.74222 -0.11417,0.068 -0.81322,-0.77973 -1.73188,-2.10024 l -1.54044,-2.21424 0.694,-0.69791 c 0.38168,-0.38385 1.21228,-1.32502 1.84578,-2.09148 3.84127,-4.64765 5.44086,-8.29509 5.5156,-12.57692 0.06,-3.43978 -0.93657,-6.37619 -3.02785,-8.92121 -3.04366,-3.70409 -7.31725,-5.4739 -12.82312,-5.31045 -8.90858,0.26447 -17.53304,5.44059 -21.15104,12.69416 -3.3281,6.67241 -1.04728,14.55475 5.71234,19.74132 2.35555,1.80738 6.09295,3.83673 8.4197,4.57177 0.40107,0.1267 0.72792,0.3058 0.72631,0.398 -0.003,0.17405 -1.43929,4.63629 -1.50925,4.68901 -0.0217,0.0164 -0.88834,-0.27581 -1.92566,-0.64945 z"
         style="color:#000000;fill:#000000;fill-opacity:1;fill-rule:nonzero;stroke:none;stroke-width:0.86299998;marker:none;visibility:visible;display:inline;overflow:visible;enable-background:accumulate" />
      <path
         inkscape:connector-curvature="0"
         id="path6647"
         d="m 634.30661,549.97773 c -4.44152,-0.35361 -8.67653,-1.85503 -12.46685,-4.41983 -1.62354,-1.09861 -5.10652,-4.70931 -6.1512,-6.37674 -1.75313,-2.7982 -2.79864,-5.26173 -3.60549,-8.49554 -1.40015,-5.6117 -1.47341,-11.943 -0.19415,-16.77646 1.82734,-6.90427 6.7264,-12.84584 13.11,-15.89976 4.78361,-2.28851 11.4547,-3.25271 16.78903,-2.42662 2.16461,0.33522 2.98892,0.52713 4.54269,1.05758 8.23487,2.81127 14.47701,9.89569 16.49235,18.71771 0.79921,3.49849 0.93592,4.924 0.86819,9.05193 -0.0559,3.42917 -0.1154,4.11318 -0.49996,5.78034 -1.06039,4.59761 -3.07352,8.43739 -6.21279,11.85014 -5.28507,5.74549 -13.60696,8.65891 -22.67182,7.93725 l 0,0 z m 5.94801,-12.66143 c 5.85134,-0.81399 10.0222,-2.5733 13.12236,-5.53513 2.67582,-2.55641 4.04909,-5.67093 4.08026,-9.25387 0.0603,-6.9246 -4.0693,-11.81136 -11.75235,-13.9074 -4.79337,-1.30768 -11.64338,-1.05903 -16.67469,0.6053 -8.28713,2.74134 -12.57894,8.60496 -11.60344,15.85307 0.67715,5.03139 3.32867,8.50524 8.15458,10.6836 3.96411,1.78935 9.08493,2.33183 14.67328,1.55443 l 0,0 z"
         style="color:#000000;fill:#000000;fill-opacity:1;fill-rule:nonzero;stroke:none;stroke-width:0.86299998;marker:none;visibility:visible;display:inline;overflow:visible;enable-background:accumulate" />
      <path
         inkscape:connector-curvature="0"
         id="path6649"
         d="m 649.1552,610.53653 c -0.041,-0.0425 -4.79768,-0.70974 -10.57052,-1.48276 -14.5183,-1.94404 -15.25011,-2.07303 -18.06607,-3.18414 -8.27431,-3.26483 -12.232,-11.85062 -10.30222,-22.3496 1.21017,-6.58394 5.20897,-12.08068 10.62863,-14.61008 2.28433,-1.06611 3.05989,-1.19015 6.90385,-1.10409 3.15559,0.0706 4.40205,0.2074 14.63728,1.60603 11.49112,1.57024 13.8046,1.77639 14.92339,1.32979 1.24419,-0.49666 1.94708,-1.80714 2.22859,-4.15509 0.0727,-0.60683 0.19426,-1.14024 0.27004,-1.18536 0.26189,-0.15595 4.98101,0.57272 4.97784,0.76862 -0.005,0.30833 -2.98793,22.58322 -3.07567,22.96729 -0.0798,0.34929 -0.0879,0.34933 -2.53876,0.0124 -1.3523,-0.1859 -2.47369,-0.34434 -2.49196,-0.35207 -0.0183,-0.007 0.027,-0.82742 0.1006,-1.82148 0.10744,-1.45116 0.08,-1.9566 -0.13959,-2.56429 -0.5248,-1.45291 -1.66225,-2.20879 -3.9256,-2.6087 -2.37224,-0.41915 -20.67019,-2.81158 -22.78966,-2.97971 -5.18256,-0.41113 -8.22634,0.41257 -10.6639,2.88581 -1.8109,1.83741 -2.77913,4.40525 -2.83958,7.53081 -0.0409,2.11499 0.16721,3.11404 1.05114,5.0462 1.76406,3.85602 4.60404,5.48401 11.25383,6.45114 8.38805,1.21996 22.50843,2.99805 23.15479,2.91574 1.98022,-0.25213 2.94739,-1.54625 3.28524,-4.39586 0.0762,-0.64328 0.19182,-1.20124 0.25677,-1.23991 0.11105,-0.0661 4.85218,0.51645 4.96837,0.61051 0.0492,0.0399 -1.20375,9.6958 -1.48191,11.42018 l -0.11821,0.73281 -4.78111,-0.0834 c -2.62962,-0.0459 -4.81464,-0.11825 -4.8556,-0.16077 l 0,0 z"
         style="color:#000000;fill:#000000;fill-opacity:1;fill-rule:nonzero;stroke:none;stroke-width:0.86299998;marker:none;visibility:visible;display:inline;overflow:visible;enable-background:accumulate" />
      <path
         inkscape:connector-curvature="0"
         id="path6651"
         d="m 633.33958,682.42901 c -1.13118,-0.43199 -2.12206,-0.81326 -2.20198,-0.84727 -0.0799,-0.034 0.0679,-0.72097 0.32857,-1.52658 1.04501,-3.23008 0.41633,-4.80652 -2.39932,-6.01637 -0.60153,-0.25847 -9.57318,-3.60447 -19.93702,-7.43558 -10.36385,-3.83109 -18.85763,-6.98503 -18.87506,-7.00872 -0.0175,-0.0237 0.6734,-1.93531 1.5352,-4.248 1.50421,-4.03667 1.58736,-4.20973 2.07839,-4.32557 0.28132,-0.0664 9.92435,-1.17664 21.42894,-2.46725 11.50461,-1.29063 20.95633,-2.37847 21.00382,-2.41743 0.0475,-0.039 0.095,-0.5389 0.10571,-1.11095 l 0.0191,-1.04008 -11.48554,-4.24924 c -16.20648,-5.9958 -15.95072,-5.90697 -17.16189,-5.9602 -1.79949,-0.0791 -2.77584,0.81774 -3.85174,3.53801 -0.26109,0.66016 -0.49702,1.22199 -0.52428,1.2485 -0.0886,0.0862 -4.72437,-1.63768 -4.72231,-1.75606 0.003,-0.18079 6.71549,-18.29963 6.81497,-18.39591 0.097,-0.0938 4.34776,1.42385 4.57518,1.63348 0.0767,0.0707 -0.0715,0.78085 -0.32948,1.57808 -0.56859,1.75749 -0.60702,2.7229 -0.14799,3.7172 0.46831,1.01436 1.33069,1.71245 2.90893,2.35476 1.91305,0.77858 29.04482,10.77998 30.01498,11.06422 1.0478,0.30699 2.63939,0.1947 3.37872,-0.2384 0.79925,-0.46819 1.34935,-1.25495 1.99446,-2.85254 0.30693,-0.76016 0.5787,-1.4033 0.6039,-1.4292 0.0422,-0.0434 4.56823,1.59111 4.69067,1.69392 0.0713,0.0598 -6.67679,18.34369 -6.82308,18.48702 -0.062,0.0607 -7.69154,0.95915 -16.95455,1.99645 -9.263,1.03732 -16.85714,1.90462 -16.87588,1.92734 -0.0187,0.0228 -0.0921,0.50718 -0.16287,1.07655 l -0.12883,1.03522 5.35884,1.97285 c 13.2338,4.87196 14.71671,5.38071 15.72363,5.39431 1.98053,0.0266 2.94493,-0.82202 3.97071,-3.4946 0.27065,-0.70516 0.57681,-1.25004 0.68034,-1.21085 0.10353,0.0392 1.15257,0.42496 2.33118,0.85724 1.17862,0.43229 2.1698,0.80672 2.20265,0.83204 0.13938,0.10757 -6.7483,18.45004 -6.92076,18.43054 -0.10442,-0.0118 -1.11537,-0.37493 -2.24655,-0.80693 z"
         style="color:#000000;fill:#000000;fill-opacity:1;fill-rule:nonzero;stroke:none;stroke-width:0.86299998;marker:none;visibility:visible;display:inline;overflow:visible;enable-background:accumulate" />
      <path
         inkscape:connector-curvature="0"
         id="path6653"
         d="m 586.53405,732.1913 c -0.21194,-0.0897 -0.3807,-0.2628 -0.37502,-0.38465 0.006,-0.12183 0.32458,-1.2573 0.70869,-2.52325 l 0.69836,-2.30173 4.03627,0.0348 c 4.42158,0.0382 6.29647,-0.18885 8.7137,-1.05538 5.46866,-1.96041 8.94485,-6.14498 9.60045,-11.55687 0.75149,-6.20345 -2.50035,-12.1796 -9.02302,-16.58225 -2.68052,-1.8093 -5.21229,-2.98108 -8.30079,-3.8419 -1.76737,-0.49261 -2.10471,-0.52994 -5.25212,-0.58127 -3.58742,-0.0586 -4.2604,0.0344 -6.7906,0.93691 -2.32486,0.82931 -5.01151,2.93167 -6.52905,5.10913 -1.04712,1.50247 -2.00446,3.59592 -2.52202,5.51497 -1.03728,3.84618 -0.59276,10.16607 1.03984,14.78358 l 0.33204,0.93914 -2.37872,0.89283 -2.37872,0.89283 -0.54599,-1.48771 c -0.78167,-2.12992 -1.90615,-6.40873 -2.21632,-8.43338 -0.30434,-1.98663 -0.28195,-5.52094 0.049,-7.7226 0.90994,-6.05474 4.12302,-12.17028 8.58848,-16.34673 4.03522,-3.77406 8.78476,-5.95618 14.32934,-6.58346 2.15029,-0.24327 6.59565,0.0149 8.73143,0.50708 5.28547,1.21803 10.32683,4.08152 14.14717,8.03559 3.62524,3.75212 5.8838,8.06591 6.88066,13.14187 0.49701,2.53069 0.41794,7.06063 -0.16708,9.57242 -0.5593,2.40135 -1.33214,4.4197 -2.58553,6.75235 -2.48585,4.62633 -5.95332,8.31306 -10.0725,10.70941 -0.82245,0.47846 -1.49381,0.92308 -1.49193,0.98806 0.002,0.0649 0.11475,0.27113 0.2508,0.4581 0.13607,0.18698 0.24629,0.40289 0.24495,0.47979 -0.003,0.19295 -17.24351,-0.14536 -17.7217,-0.34784 l 0,0 z"
         style="color:#000000;fill:#000000;fill-opacity:1;fill-rule:nonzero;stroke:none;stroke-width:0.86299998;marker:none;visibility:visible;display:inline;overflow:visible;enable-background:accumulate" />
      <path
         inkscape:connector-curvature="0"
         id="path6655"
         d="m 571.22004,770.05634 -1.88833,-1.72181 0.90988,-1.03903 c 1.19596,-1.3657 1.63716,-2.08756 1.78823,-2.92574 0.15516,-0.86086 -0.18544,-1.94649 -0.90814,-2.89451 -0.41648,-0.54637 -18.38596,-17.19495 -23.5805,-21.8472 -1.71896,-1.53948 -2.44571,-1.9521 -3.48695,-1.97966 -1.18309,-0.0312 -1.81197,0.3026 -3.42422,1.8181 l -1.32847,1.24874 -1.82283,-1.69294 c -1.62741,-1.51146 -1.79634,-1.72298 -1.57568,-1.97305 2.63468,-2.98594 15.68037,-17.04456 15.78046,-17.00575 0.25176,0.0976 3.56304,3.17562 3.56069,3.30986 -10e-4,0.0723 -0.44196,0.65025 -0.97936,1.28437 -1.12235,1.32441 -1.41492,1.81587 -1.59069,2.67196 -0.19616,0.95538 0.14257,1.9271 1.02841,2.95024 0.72075,0.83245 21.64824,20.19041 23.7218,21.9427 1.62328,1.37176 2.26215,1.70251 3.34492,1.73163 1.2823,0.0345 2.2251,-0.48305 3.57654,-1.96331 l 0.99931,-1.09459 1.80398,1.67544 c 0.9922,0.92149 1.80285,1.74096 1.80145,1.82105 -0.001,0.0801 -3.36605,3.80113 -7.47699,8.26898 -4.11096,4.46785 -7.67487,8.35129 -7.91982,8.62984 l -0.44537,0.50647 -1.88832,-1.72179 0,0 z"
         style="color:#000000;fill:#000000;fill-opacity:1;fill-rule:nonzero;stroke:none;stroke-width:0.86299998;marker:none;visibility:visible;display:inline;overflow:visible;enable-background:accumulate" />
      <path
         inkscape:connector-curvature="0"
         id="path6657"
         d="m 541.63879,796.07026 c -0.83555,-1.05974 -1.51878,-1.94927 -1.5183,-1.97672 4.8e-4,-0.0275 0.56584,-0.52148 1.25633,-1.09781 1.46174,-1.22004 1.99158,-2.11333 2.01396,-3.39538 0.0178,-1.01753 -0.23795,-1.74089 -1.00286,-2.8371 -0.94099,-1.34849 -19.8419,-24.94854 -20.56002,-25.67164 -0.83331,-0.83909 -1.97921,-1.06607 -2.96112,-0.58655 -1.63187,0.79696 -5.39273,4.338 -6.7376,6.34382 -1.76183,2.62769 -2.47855,5.1112 -2.5379,8.79425 -0.042,2.63564 0.25974,4.83692 0.96158,7.00376 0.18294,0.56482 0.33233,1.04386 0.33197,1.06451 -0.001,0.0823 -4.87594,1.76811 -4.92938,1.70476 -0.0813,-0.0963 -5.98021,-17.29324 -6.04003,-17.60832 -0.0313,-0.16513 5.44213,-4.64908 14.99841,-12.28691 l 15.04776,-12.0269 0.59208,0.67519 c 0.32564,0.37136 1.05681,1.25927 1.62481,1.97312 l 1.03271,1.29794 -1.01821,0.84586 c -2.15382,1.78922 -2.77332,3.54271 -1.91553,5.42198 0.5016,1.09894 19.40606,24.90194 21.03085,26.48038 1.04691,1.01705 1.85676,1.40259 2.98768,1.42233 0.89315,0.0156 1.67274,-0.33823 3.08912,-1.402 l 1.23144,-0.92486 1.36159,1.70042 c 0.74888,0.93522 1.46398,1.82617 1.58913,1.97988 0.20077,0.24659 -0.85495,1.14374 -8.97204,7.62446 -5.05976,4.03973 -9.25305,7.35922 -9.31842,7.37665 -0.0654,0.0174 -0.80247,-0.83539 -1.63801,-1.89512 z"
         style="color:#000000;fill:#000000;fill-opacity:1;fill-rule:nonzero;stroke:none;stroke-width:0.86299998;marker:none;visibility:visible;display:inline;overflow:visible;enable-background:accumulate" />
      <path
         inkscape:connector-curvature="0"
         id="path6659"
         d="m 428.69356,850.4531 c -1.00808,-4.04162 -1.88153,-7.40771 -1.94101,-7.48019 -0.0793,-0.0966 -24.20058,5.83027 -25.40319,6.24188 -0.11051,0.0379 -0.68297,-1.90977 -1.41833,-4.82533 l -1.23302,-4.88878 8.92677,-16.0115 c 4.90974,-8.80633 9.0129,-16.10163 9.11818,-16.2118 0.17505,-0.1832 9.8246,-2.69436 9.93064,-2.58431 0.0253,0.0263 1.6929,6.60701 3.70562,14.62376 2.01273,8.01673 3.68121,14.60565 3.70777,14.64206 0.0266,0.0365 2.34336,-0.51097 5.14849,-1.2164 l 5.10024,-1.2826 0.80285,3.22233 c 0.55236,2.21698 0.7419,3.25326 0.60756,3.32149 -0.10738,0.0545 -2.33963,0.63065 -4.96053,1.28026 -2.62091,0.64962 -4.82279,1.22876 -4.8931,1.28699 -0.0703,0.0582 0.70553,3.42125 1.72406,7.47337 1.01853,4.05211 1.7929,7.41621 1.7208,7.47576 -0.072,0.0596 -1.96357,0.56602 -4.20333,1.12548 -2.23975,0.55947 -4.19273,1.04843 -4.33994,1.08657 -0.21761,0.0564 -0.61032,-1.30453 -2.10053,-7.27904 l 0,0 z m -14.38708,-11.43785 c 5.90947,-1.49538 10.73784,-2.78935 10.72971,-2.87549 -0.072,-0.76209 -5.64034,-22.44503 -5.739,-22.34739 -0.14066,0.13922 -15.81855,27.7731 -15.82051,27.88526 -0.002,0.088 -1.31967,0.41204 10.8298,-2.66238 z"
         style="color:#000000;fill:#000000;fill-opacity:1;fill-rule:nonzero;stroke:none;stroke-width:0.86299998;marker:none;visibility:visible;display:inline;overflow:visible;enable-background:accumulate" />
      <path
         inkscape:connector-curvature="0"
         id="path6661"
         d="m 361.97668,866.75559 c 0.0482,-2.70536 0.71208,-7.83694 1.41325,-10.92578 1.52593,-6.72239 5.09154,-14.42093 10.16865,-21.95531 1.84582,-2.73917 3.76865,-5.22442 6.53399,-8.44512 1.84304,-2.14653 2.07144,-2.47773 1.74309,-2.52758 -0.46638,-0.0707 -22.53795,1.40949 -24.21217,1.62384 -1.77533,0.22731 -2.50447,0.43854 -3.38149,0.97958 -1.72575,1.06462 -2.25203,2.12992 -3.15076,6.37767 -0.26786,1.26598 -0.37162,1.50649 -0.64788,1.50167 -0.89646,-0.0156 -3.91917,-0.65216 -3.91767,-0.82495 0.003,-0.41456 3.47451,-17.77712 3.57432,-17.87972 0.0582,-0.0598 0.69109,-0.15106 1.40646,-0.20277 l 1.30067,-0.094 0.29273,0.86294 c 0.28795,0.84881 0.30315,0.86187 0.92996,0.79918 0.86064,-0.0861 35.62808,-2.37977 35.97991,-2.37365 0.30958,0.005 0.39536,0.57983 0.53064,3.55392 l 0.0787,1.73051 -1.18249,1.36266 c -5.93352,6.83756 -9.74648,13.545 -12.79693,22.51122 -2.35983,6.93629 -3.26252,12.03784 -3.67771,20.78447 l -0.18087,3.81023 -4.93916,0.30241 c -2.71653,0.16632 -5.15332,0.33976 -5.41507,0.38541 l -0.47591,0.083 0.0257,-1.43981 0,0 z"
         style="color:#000000;fill:#000000;fill-opacity:1;fill-rule:nonzero;stroke:none;stroke-width:0.86299998;marker:none;visibility:visible;display:inline;overflow:visible;enable-background:accumulate" />
      <path
         inkscape:connector-curvature="0"
         id="path6663"
         d="m 299.35568,865.58642 c -0.47371,-0.0436 -1.2763,-0.13272 -1.78354,-0.19811 l -0.92224,-0.11886 0.1322,-1.1501 c 0.0727,-0.63254 0.18554,-1.59656 0.25075,-2.14226 l 0.11852,-0.99218 3.29798,0.0571 c 3.54308,0.0611 6.39135,-0.0927 8.74201,-0.47254 7.43042,-1.20049 12.96479,-4.82017 15.80663,-10.33813 0.74158,-1.4399 2.85434,-6.85129 2.72669,-6.98377 -0.047,-0.0487 -1.67763,0.69938 -3.62376,1.66244 -5.09631,2.52194 -7.19371,3.10488 -10.93782,3.04001 -4.76467,-0.0826 -8.99941,-1.4657 -12.47951,-4.07589 -1.31729,-0.98803 -1.9388,-1.61058 -3.07145,-3.07664 -1.2352,-1.5988 -2.05419,-3.36677 -2.57606,-5.56093 -0.68694,-2.88818 -0.40278,-7.35643 0.65438,-10.2899 1.97966,-5.49321 6.12252,-9.37574 11.90732,-11.15911 4.7278,-1.45752 12.18534,-1.13923 17.55198,0.74911 7.65564,2.69378 12.40622,8.83196 13.45507,17.38517 0.68601,5.5945 -0.85202,14.05994 -3.4552,19.01762 -3.53685,6.7358 -10.78579,11.95222 -19.30386,13.89126 -3.417,0.77783 -5.09637,0.9172 -10.53978,0.87472 -2.79896,-0.0218 -5.4766,-0.0753 -5.95031,-0.11897 l 0,0 z m 19.81387,-23.14034 c 4.37757,-1.00932 7.27841,-3.92942 8.53714,-8.59383 0.53251,-1.97333 0.55633,-5.52522 0.0486,-7.26148 -0.59622,-2.03913 -1.30172,-3.25865 -2.78934,-4.82166 -1.49333,-1.569 -2.98534,-2.46821 -5.03749,-3.03596 -1.38287,-0.38259 -4.38299,-0.47927 -5.69038,-0.18334 -3.12384,0.70705 -6.11755,3.01724 -7.48043,5.77242 -0.96304,1.94689 -1.31282,3.30198 -1.46629,5.68051 -0.24367,3.77659 0.6551,6.64461 2.83333,9.04117 1.62892,1.79221 3.18904,2.72453 5.52549,3.30199 1.27427,0.31493 4.34605,0.37068 5.5193,0.10034 l 0,10e-6 z"
         style="color:#000000;fill:#000000;fill-opacity:1;fill-rule:nonzero;stroke:none;stroke-width:0.86299998;marker:none;visibility:visible;display:inline;overflow:visible;enable-background:accumulate" />
      <path
         inkscape:connector-curvature="0"
         id="path6665"
         d="m 259.27991,855.38565 c -8.14759,-2.44646 -14.84592,-4.48142 -14.88517,-4.52217 -0.0589,-0.0611 0.83009,-3.19002 1.09717,-3.86146 0.0546,-0.13712 0.72738,-0.002 2.19297,0.44096 2.37626,0.7179 4.98385,1.34647 5.65099,1.3622 0.71988,0.0166 1.95164,-0.45253 2.65197,-1.0108 0.75303,-0.60027 1.28676,-1.54953 1.96126,-3.48815 1.04786,-3.01168 9.81333,-32.5009 9.69493,-32.61611 -0.0697,-0.0678 -2.40524,-0.80233 -5.19011,-1.63223 -2.78485,-0.8299 -5.1267,-1.56918 -5.20411,-1.64287 -0.10046,-0.0956 0.85142,-3.84976 1.07934,-4.25681 0.0119,-0.0212 0.51012,0.049 1.10722,0.15614 4.63471,0.83128 11.6123,1.25914 15.7542,0.96603 1.84421,-0.13051 2.58328,-0.11924 3.23413,0.0494 0.46401,0.12015 0.84253,0.2826 0.84116,0.36097 -10e-4,0.0784 -2.7286,9.22412 -6.06051,20.32387 -3.33191,11.09976 -6.21811,20.80107 -6.41375,21.55847 -0.67339,2.60685 -0.41572,3.92516 1.0244,5.24099 0.66043,0.60344 1.19852,0.86677 3.14661,1.53987 1.29245,0.44658 2.76455,0.92361 3.27129,1.0601 0.50675,0.13647 0.94798,0.32886 0.98053,0.42751 0.0326,0.0987 -0.20629,1.03728 -0.53077,2.08583 l -0.58992,1.90643 -14.81383,-4.44808 z"
         style="color:#000000;fill:#000000;fill-opacity:1;fill-rule:nonzero;stroke:none;stroke-width:0.86299998;marker:none;visibility:visible;display:inline;overflow:visible;enable-background:accumulate" />
      <path
         inkscape:connector-curvature="0"
         id="path6667"
         d="m 152.46265,796.38826 c -4.03352,-3.54427 -7.33282,-6.49369 -7.33176,-6.55426 0.001,-0.0605 1.91554,-7.43801 4.25442,-16.39433 2.33887,-8.95632 4.25347,-16.33967 4.25466,-16.40745 0.003,-0.15926 -1.69195,-1.05965 -1.86883,-0.99288 -0.12998,0.049 -11.37882,12.80981 -13.09539,14.85552 -1.24884,1.48828 -1.59276,2.22183 -1.61778,3.45055 -0.0187,0.89849 0.0535,1.15471 0.5107,1.82449 0.29259,0.42857 0.98716,1.17621 1.54349,1.66144 0.55634,0.48521 0.99683,0.93875 0.97885,1.00786 -0.0496,0.19111 -3.15426,3.70929 -3.27114,3.70693 -0.10257,-0.002 -13.95924,-12.12067 -14.48958,-12.67214 -0.26475,-0.27528 -0.17919,-0.41114 1.31124,-2.08225 0.87695,-0.98326 1.65683,-1.81098 1.73307,-1.83936 0.0762,-0.0284 0.58115,0.32267 1.122,0.78014 2.5633,2.16807 4.32861,2.21332 6.40068,0.16403 0.50921,-0.5036 6.92344,-7.74029 14.25387,-16.08153 l 13.32805,-15.1659 3.40032,2.99836 c 2.30122,2.02918 3.38578,3.09648 3.35536,3.30192 -0.0424,0.28592 -10.51239,40.68943 -10.70925,41.32667 -0.0695,0.22517 0.13979,0.41665 0.85969,0.78624 0.82971,0.42595 0.98229,0.45674 1.1905,0.24024 0.50067,-0.52062 17.16919,-19.55466 18.18956,-20.77095 0.58975,-0.70298 1.24183,-1.60276 1.44909,-1.99954 0.80334,-1.53792 0.34797,-2.92326 -1.59453,-4.85092 l -1.25987,-1.25025 1.65218,-1.87571 c 1.59445,-1.81019 1.66432,-1.86573 1.99989,-1.58989 0.19125,0.1572 3.54124,3.09275 7.44445,6.52341 6.34086,5.57323 7.07089,6.2674 6.85425,6.5174 -2.12892,2.45679 -3.01255,3.43035 -3.11194,3.42862 -0.0663,-10e-4 -0.57422,-0.36829 -1.12863,-0.81585 -1.49882,-1.20996 -2.22803,-1.55722 -3.32618,-1.58393 -1.10303,-0.0272 -2.10535,0.45442 -3.16113,1.51776 -0.35568,0.35823 -5.32813,5.97746 -11.04987,12.48716 -7.09202,8.06868 -10.54841,12.1285 -10.85945,12.75533 -0.55006,1.10853 -0.63654,2.4335 -0.21624,3.31355 0.15806,0.33098 0.85807,1.16412 1.55556,1.85145 l 1.26818,1.24965 -1.61154,1.81354 c -0.88637,0.99745 -1.67044,1.81252 -1.74242,1.81126 -0.0719,-0.001 -3.431,-2.90215 -7.46453,-6.44643 l 0,0 z"
         style="color:#000000;fill:#000000;fill-opacity:1;fill-rule:nonzero;stroke:none;stroke-width:0.86299998;marker:none;visibility:visible;display:inline;overflow:visible;enable-background:accumulate" />
      <path
         inkscape:connector-curvature="0"
         id="path6669"
         d="m 95.917831,737.18982 c -1.368181,-1.86119 -2.740989,-3.71274 -3.050686,-4.11456 -0.309695,-0.40182 -0.561775,-0.8055 -0.560176,-0.89707 0.0016,-0.0916 5.311038,-8.52608 11.798771,-18.74336 6.48774,-10.21728 12.03851,-19.0384 12.33509,-19.60248 1.16175,-2.20962 1.25583,-3.62219 0.35368,-5.31081 l -0.3963,-0.7418 3.22414,0.0563 3.22415,0.0563 5.47503,7.44879 c 3.01126,4.09685 5.49803,7.52015 5.52615,7.60736 0.0282,0.0872 -0.86012,0.81992 -1.97388,1.62828 l -2.02503,1.46973 -0.96236,-1.10393 c -1.05886,-1.21458 -1.97976,-1.75402 -3.03296,-1.77658 -0.86538,-0.0181 -1.47358,0.28214 -2.21205,1.09356 -1.1077,1.21711 -4.90215,6.60406 -4.7877,6.7971 0.19329,0.32603 10.00615,13.66812 10.23928,13.92187 0.18184,0.19791 0.8009,0.0699 3.74916,-0.77526 5.30835,-1.52169 6.01413,-1.93773 6.20969,-3.66038 0.12501,-1.10128 -0.13825,-1.94126 -1.02614,-3.27408 l -0.71564,-1.07422 1.98067,-1.45416 c 1.08938,-0.79979 2.04327,-1.45084 2.11978,-1.4468 0.11532,0.006 10.32907,13.78835 10.70863,14.45003 0.0784,0.13681 -0.59818,0.74101 -1.92791,1.72149 l -2.04882,1.51069 -0.67136,-0.6847 c -0.36924,-0.37659 -0.97982,-0.84927 -1.35686,-1.05042 -0.85437,-0.4558 -2.56491,-0.63626 -3.66203,-0.38632 -0.87306,0.19889 -43.49978,11.5221 -43.846697,11.64727 -0.110009,0.0397 -1.319444,-1.45061 -2.687622,-3.3118 l 0,0 z m 18.304419,-7.62119 c 6.09544,-1.73053 9.39339,-2.74456 9.36704,-2.88013 -0.0223,-0.1151 -1.81387,-2.62325 -3.98117,-5.57369 -3.21746,-4.38006 -3.98098,-5.32287 -4.16092,-5.13792 -0.27168,0.27927 -11.06276,16.19205 -11.06494,16.31662 -8.6e-4,0.0493 0.096,0.0573 0.21536,0.0178 0.1193,-0.0395 4.45039,-1.27369 9.62463,-2.7427 l 0,0 z"
         style="color:#000000;fill:#000000;fill-opacity:1;fill-rule:nonzero;stroke:none;stroke-width:0.86299998;marker:none;visibility:visible;display:inline;overflow:visible;enable-background:accumulate" />
      <path
         inkscape:connector-curvature="0"
         id="path6671"
         d="m 67.733166,696.52427 c -0.380554,-0.83181 -0.69142,-1.54099 -0.690809,-1.57597 6.11e-4,-0.035 0.308344,-0.35282 0.683855,-0.70634 l 0.682745,-0.64274 -6.443878,-14.2913 -6.443878,-14.2913 -1.030061,-0.0689 -1.030059,-0.0689 -0.679501,-1.51713 -0.6795,-1.51713 6.436861,-6.16112 6.43686,-6.16111 1.862918,1.93336 1.862918,1.93335 -0.563961,0.73162 c -3.484873,4.52092 -4.777203,7.16282 -5.18686,10.60345 -0.318092,2.67161 0.326848,5.15213 1.565321,6.02043 0.684374,0.47983 1.096236,0.50858 2.20195,0.15376 1.520165,-0.48781 30.999622,-13.83994 31.833226,-14.41822 1.739947,-1.20702 1.979097,-2.56682 0.927216,-5.27236 -0.346144,-0.89032 -0.600404,-1.63801 -0.565038,-1.66152 0.235711,-0.15672 4.334179,-1.93874 4.454089,-1.93664 0.15202,0.003 9.68267,21.03295 9.67707,21.35337 -0.003,0.17439 -4.09696,2.09144 -4.44735,2.08255 -0.10113,-0.003 -0.40319,-0.48899 -0.67127,-1.08093 -1.49772,-3.30726 -3.03754,-3.9206 -6.41399,-2.55482 -1.526172,0.61734 -26.467272,11.80488 -29.275895,13.13195 -1.706225,0.80619 -2.379787,1.45876 -2.394823,2.32017 -0.02692,1.54219 1.523274,3.75989 3.68105,5.26613 2.562181,1.78853 4.936581,2.52704 9.184557,2.85669 1.600647,0.12416 2.937124,0.25372 2.969953,0.28779 0.138448,0.14368 0.484263,5.04702 0.363078,5.1481 -0.07307,0.0609 -3.826052,0.41384 -8.339942,0.78419 -4.51389,0.37036 -8.447343,0.70905 -8.741005,0.75266 -0.522155,0.0776 -0.549189,0.0459 -1.225849,-1.4331 z"
         style="color:#000000;fill:#000000;fill-opacity:1;fill-rule:nonzero;stroke:none;stroke-width:0.86299998;marker:none;visibility:visible;display:inline;overflow:visible;enable-background:accumulate" />
      <path
         inkscape:connector-curvature="0"
         id="path6673"
         d="m 47.609715,641.88312 c 8.12e-4,-0.0465 -1.343466,-5.18193 -2.987283,-11.41212 -1.643816,-6.23021 -2.971597,-11.33736 -2.950626,-11.34922 0.02097,-0.0118 1.131581,-0.31211 2.468019,-0.6672 l 2.429888,-0.64562 0.471324,1.61883 c 0.259228,0.89036 0.64521,1.88518 0.857738,2.21073 0.800715,1.2265 2.530192,1.6407 4.78895,1.14696 2.740867,-0.59915 30.80158,-8.11281 31.661367,-8.4778 2.142566,-0.90955 2.667444,-2.32474 1.964197,-5.29597 -0.176751,-0.74677 -0.320399,-1.41321 -0.319216,-1.48099 0.0038,-0.21747 4.675795,-1.37239 4.836883,-1.19568 0.263655,0.2892 6.041936,22.51971 5.889019,22.65652 -0.197315,0.17656 -4.61715,1.31049 -4.714439,1.20953 -0.04212,-0.0437 -0.27321,-0.72554 -0.513512,-1.51515 -0.703389,-2.31124 -1.300701,-3.0754 -2.722712,-3.4833 -0.612177,-0.17561 -1.006212,-0.16929 -2.095602,0.0336 -1.291072,0.24048 -27.703706,7.15501 -30.545149,7.99638 -2.441859,0.72307 -3.388041,1.33329 -3.961963,2.55518 -0.305625,0.65068 -0.327159,0.87439 -0.182788,1.89885 0.09001,0.63869 0.267315,1.57625 0.394016,2.08346 0.172716,0.69142 0.179333,0.93857 0.02644,0.98767 -0.537583,0.1726 -4.543005,1.21421 -4.661215,1.21215 -0.07415,-10e-4 -0.134147,-0.0403 -0.133336,-0.0868 z"
         style="color:#000000;fill:#000000;fill-opacity:1;fill-rule:nonzero;stroke:none;stroke-width:0.86299998;marker:none;visibility:visible;display:inline;overflow:visible;enable-background:accumulate" />
      <path
         inkscape:connector-curvature="0"
         id="path6675"
         d="m 56.355879,600.44087 c -6.434594,-1.13653 -10.752234,-3.40069 -14.919822,-7.82394 -3.733742,-3.96279 -6.076517,-9.25923 -6.915162,-15.6335 -1.255618,-9.54352 1.153768,-17.59984 7.041151,-23.54363 4.346774,-4.38843 9.453835,-6.70374 16.413361,-7.44108 2.418351,-0.25623 7.30498,0.012 9.328741,0.51209 11.095624,2.74169 17.90609,10.80539 19.423408,22.99763 1.087239,8.7364 -0.718731,16.20065 -5.249172,21.69536 -4.319487,5.23886 -9.663686,8.1735 -16.666907,9.15222 -1.961862,0.27418 -7.092231,0.32567 -8.455598,0.0849 z m 5.47795,-12.35696 c 8.836006,-0.65578 15.422658,-4.32269 17.900386,-9.96545 1.396081,-3.17943 1.246076,-8.18884 -0.343579,-11.47393 -1.897708,-3.92169 -6.450089,-6.91885 -12.040753,-7.92729 -3.265584,-0.58905 -8.477983,-0.42779 -12.42909,0.38452 -7.21234,1.4828 -12.154527,5.29418 -13.916719,10.73252 -0.522283,1.61182 -0.554484,5.42278 -0.06128,7.25146 1.048863,3.88888 3.289811,6.54775 7.243533,8.5944 3.8556,1.99585 8.387798,2.79412 13.647493,2.40377 z"
         style="color:#000000;fill:#000000;fill-opacity:1;fill-rule:nonzero;stroke:none;stroke-width:0.86299998;marker:none;visibility:visible;display:inline;overflow:visible;enable-background:accumulate" />
      <path
         inkscape:connector-curvature="0"
         id="path6677"
         d="m 83.199147,535.36827 c -0.567788,-0.09 -1.676456,-0.26425 -2.463704,-0.38728 l -1.431364,-0.22371 0.127298,-0.68227 c 0.07001,-0.37524 0.138584,-1.32874 0.152376,-2.11888 0.02645,-1.51534 -0.107812,-1.90925 -0.995678,-2.9211 -0.85642,-0.976 -1.45296,-1.09341 -18.103251,-3.56298 -8.702196,-1.2907 -16.274397,-2.35463 -16.827109,-2.36428 -1.779298,-0.031 -2.998398,0.58047 -3.664234,1.83807 -0.344217,0.65014 -0.730429,2.14379 -0.747716,2.89175 -0.02217,0.96099 -0.09196,0.9759 -2.750177,0.58812 -1.439766,-0.21004 -2.426785,-0.4306 -2.426094,-0.54215 0.0014,-0.22674 2.801832,-19.31405 2.842604,-19.37477 0.01571,-0.0233 7.284483,-2.43704 16.152822,-5.36363 l 16.124255,-5.32107 -0.03035,-1.00483 c -0.01669,-0.55265 -0.102443,-1.05124 -0.19057,-1.10797 -0.326294,-0.21008 -19.750178,-3.00696 -20.997268,-3.02344 -1.450155,-0.0193 -2.462535,0.3556 -3.109742,1.15123 -0.450984,0.55438 -0.886751,1.87917 -1.048807,3.18849 -0.06643,0.53669 -0.17002,1.05076 -0.230208,1.1424 -0.101903,0.15513 -4.776299,-0.44004 -4.960937,-0.63165 -0.06382,-0.0662 2.70137,-19.25759 2.793547,-19.38813 0.01828,-0.0259 1.147764,0.11285 2.509974,0.30835 l 2.476746,0.35542 -0.03752,0.51292 c -0.191039,2.61183 -0.148124,3.67179 0.17543,4.33247 0.644615,1.31627 1.415079,1.77098 3.736496,2.2052 0.678064,0.12684 10.030496,1.5344 20.783186,3.12794 10.752687,1.59352 19.600003,2.94886 19.660703,3.01185 0.129034,0.13392 -1.113757,8.76919 -1.284886,8.92776 -0.06356,0.0589 -9.252047,3.12162 -20.418862,6.80607 -11.166812,3.68444 -20.361588,6.74603 -20.432837,6.80352 -0.07124,0.0575 -0.08009,0.56409 -0.01965,1.12576 l 0.109892,1.02119 13.508772,2.00923 c 15.956563,2.37327 16.524708,2.43713 17.484397,1.96504 1.356977,-0.66753 1.837076,-1.48198 2.302646,-3.90631 0.159278,-0.8294 0.310676,-1.52841 0.336437,-1.55333 0.07449,-0.0721 4.791838,0.67248 4.887126,0.77137 0.106756,0.11079 -2.757068,19.61071 -2.875543,19.5797 -0.04723,-0.0123 -0.550427,-0.0961 -1.118217,-0.18607 l 0,0 z"
         style="color:#000000;fill:#000000;fill-opacity:1;fill-rule:nonzero;stroke:none;stroke-width:0.86299998;marker:none;visibility:visible;display:inline;overflow:visible;enable-background:accumulate" />
      <path
         inkscape:connector-curvature="0"
         id="path6679"
         d="m 90.417082,479.93708 c -1.856403,-0.71924 -2.337411,-0.97057 -2.253037,-1.17728 0.059,-0.14455 0.159671,-0.77503 0.223707,-1.40107 0.178101,-1.74112 -0.176398,-2.64759 -1.658145,-4.24002 -0.667368,-0.71723 -8.473979,-7.9041 -17.348024,-15.97084 -8.874046,-8.06674 -16.158066,-14.73116 -16.186712,-14.80983 -0.02864,-0.0787 0.777898,-2.31122 1.792322,-4.9612 l 1.844409,-4.81816 1.658251,0.0239 c 4.951509,0.0726 43.735357,-0.2983 44.538567,-0.42595 1.09753,-0.17444 1.80527,-0.42029 2.459,-0.85421 0.4045,-0.2685 0.84013,-0.30098 3.43045,-0.25576 2.29976,0.0401 2.94896,0.10008 2.88639,0.26652 -4.02274,10.69938 -7.87303,20.56467 -8.02574,20.56381 -0.15463,-7e-4 -4.461601,-1.59295 -4.63701,-1.71407 -0.02047,-0.0142 0.123712,-0.52463 0.320418,-1.13445 0.711602,-2.20608 0.320346,-4.05931 -0.999573,-4.73449 -0.708838,-0.36259 -5.326333,-0.78703 -8.040499,-0.73907 l -1.448295,0.0256 -3.12549,8.15879 c -1.719019,4.48732 -3.111044,8.21503 -3.093385,8.28377 0.06406,0.24938 5.997485,5.2978 6.614827,5.62817 0.348811,0.18668 0.955432,0.34502 1.348047,0.35187 1.485211,0.0259 2.467274,-0.81559 3.415032,-2.92632 0.286784,-0.63869 0.600028,-1.12996 0.696096,-1.09172 0.09607,0.0383 1.100267,0.41787 2.231554,0.84359 1.131286,0.42573 2.116206,0.82888 2.18871,0.89591 0.11914,0.11013 -6.119282,16.79415 -6.367007,17.0279 -0.05748,0.0542 -1.166688,-0.31285 -2.464857,-0.8158 l 0,0 z m -9.450733,-30.35754 c 1.281881,-3.35374 2.320326,-6.10721 2.307657,-6.11881 -0.119817,-0.10982 -19.937872,-0.57734 -19.930759,-0.47018 0.0052,0.0788 3.387319,3.10387 7.515762,6.72252 6.255519,5.48307 7.528786,6.52812 7.641452,6.27178 0.07435,-0.16917 1.184008,-3.05156 2.465888,-6.40531 l 0,0 z"
         style="color:#000000;fill:#000000;fill-opacity:1;fill-rule:nonzero;stroke:none;stroke-width:0.86299998;marker:none;visibility:visible;display:inline;overflow:visible;enable-background:accumulate" />
      <path
         inkscape:connector-curvature="0"
         id="path6681"
         d="m 113.17703,424.28798 c -1.07794,-0.68904 -1.99091,-1.28499 -2.02882,-1.32433 -0.0379,-0.0394 0.30378,-0.77187 0.75932,-1.62783 0.72789,-1.36772 0.82957,-1.68593 0.83914,-2.62635 0.0161,-1.58403 -0.48109,-2.46672 -2.00073,-3.55183 -1.36053,-0.97149 -25.637214,-16.43834 -26.901206,-17.13896 -1.438115,-0.79713 -2.544672,-1.03184 -3.541953,-0.75126 -1.065192,0.29968 -1.636902,0.79276 -2.692437,2.32215 l -0.962315,1.39432 -2.128419,-1.35836 c -1.170632,-0.7471 -2.107685,-1.40485 -2.082339,-1.46166 0.215951,-0.48407 12.669812,-19.82431 12.764955,-19.82335 0.123896,10e-4 3.614295,2.20191 4.007676,2.52681 0.155238,0.12822 0.09333,0.34081 -0.25361,0.87086 -0.823513,1.25816 -1.484468,2.7663 -1.4959,3.41329 -0.01706,0.96565 0.526683,2.08684 1.398286,2.88322 0.726328,0.66364 25.927412,16.86597 28.037112,18.02569 1.17044,0.64338 2.16102,0.69589 2.99562,0.15878 1.18052,-0.75969 3.53924,-4.75849 4.49358,-7.61806 1.64475,-4.92824 0.67758,-10.26161 -2.83341,-15.62464 -0.58905,-0.89978 -1.07064,-1.65645 -1.0702,-1.6815 0.002,-0.0959 3.69755,-2.98551 3.89786,-3.04752 0.20027,-0.0619 11.46193,14.29074 11.565,14.73934 0.0506,0.22001 -20.52007,32.56969 -20.70413,32.55965 -0.0568,-0.003 -0.98512,-0.56941 -2.06308,-1.25846 l 0,0 z"
         style="color:#000000;fill:#000000;fill-opacity:1;fill-rule:nonzero;stroke:none;stroke-width:0.86299998;marker:none;visibility:visible;display:inline;overflow:visible;enable-background:accumulate" />
    </g>
  </g>
</svg>
